<svg width="914" height="613" viewBox="0 0 914 613" fill="none" xmlns="http://www.w3.org/2000/svg">
<circle cx="775" cy="427" r="139" fill="#EDC015"/>
<g filter="url(#filter0_bd_7_9)">
<rect x="378" y="368" width="460" height="129" rx="10" fill="#F9F4E8" fill-opacity="0.2" shape-rendering="crispEdges"/>
<rect x="379.5" y="369.5" width="457" height="126" rx="8.5" stroke="white" stroke-width="3" shape-rendering="crispEdges"/>
</g>
<ellipse cx="693.5" cy="449" rx="11.5" ry="12" fill="#B898F7"/>
<ellipse cx="480.5" cy="443" rx="11.5" ry="18" fill="#73D0FE"/>
<ellipse cx="787.5" cy="431.5" rx="18.5" ry="11.5" fill="#ED6760"/>
<path d="M128.023 352L107.705 282.182H126.352L136.886 327.932H137.466L149.5 282.182H164.705L176.739 328.034H177.318L187.886 282.182H206.5L186.216 352H169.955L157.375 309.659H156.83L144.25 352H128.023ZM232.136 352.989C226.659 352.989 221.932 351.909 217.955 349.75C214 347.568 210.955 344.466 208.818 340.443C206.705 336.398 205.648 331.591 205.648 326.023C205.648 320.614 206.716 315.886 208.852 311.841C210.989 307.773 214 304.614 217.886 302.364C221.773 300.091 226.352 298.955 231.625 298.955C235.352 298.955 238.761 299.534 241.852 300.693C244.943 301.852 247.614 303.568 249.864 305.841C252.114 308.114 253.864 310.92 255.114 314.261C256.364 317.58 256.989 321.386 256.989 325.682V329.841H211.477V320.159H241.477C241.455 318.386 241.034 316.807 240.216 315.42C239.398 314.034 238.273 312.955 236.841 312.182C235.432 311.386 233.807 310.989 231.966 310.989C230.102 310.989 228.432 311.409 226.955 312.25C225.477 313.068 224.307 314.193 223.443 315.625C222.58 317.034 222.125 318.636 222.08 320.432V330.284C222.08 332.42 222.5 334.295 223.341 335.909C224.182 337.5 225.375 338.739 226.92 339.625C228.466 340.511 230.307 340.955 232.443 340.955C233.92 340.955 235.261 340.75 236.466 340.341C237.67 339.932 238.705 339.33 239.568 338.534C240.432 337.739 241.08 336.761 241.511 335.602L256.818 336.045C256.182 339.477 254.784 342.466 252.625 345.011C250.489 347.534 247.682 349.5 244.205 350.909C240.727 352.295 236.705 352.989 232.136 352.989ZM349.503 307.477H332.457C332.23 305.727 331.764 304.148 331.06 302.739C330.355 301.33 329.423 300.125 328.264 299.125C327.105 298.125 325.73 297.364 324.139 296.841C322.571 296.295 320.832 296.023 318.923 296.023C315.537 296.023 312.616 296.852 310.162 298.511C307.73 300.17 305.855 302.568 304.537 305.705C303.241 308.841 302.594 312.636 302.594 317.091C302.594 321.727 303.253 325.614 304.571 328.75C305.912 331.864 307.787 334.216 310.196 335.807C312.628 337.375 315.503 338.159 318.821 338.159C320.685 338.159 322.378 337.92 323.901 337.443C325.446 336.966 326.798 336.273 327.957 335.364C329.139 334.432 330.105 333.307 330.855 331.989C331.628 330.648 332.162 329.136 332.457 327.455L349.503 327.557C349.207 330.648 348.31 333.693 346.81 336.693C345.332 339.693 343.298 342.432 340.707 344.909C338.116 347.364 334.957 349.318 331.23 350.773C327.526 352.227 323.276 352.955 318.48 352.955C312.162 352.955 306.503 351.568 301.503 348.795C296.526 346 292.594 341.932 289.707 336.591C286.821 331.25 285.378 324.75 285.378 317.091C285.378 309.409 286.844 302.898 289.776 297.557C292.707 292.216 296.673 288.159 301.673 285.386C306.673 282.614 312.276 281.227 318.48 281.227C322.707 281.227 326.616 281.818 330.207 283C333.798 284.159 336.957 285.864 339.685 288.114C342.412 290.341 344.628 293.08 346.332 296.33C348.037 299.58 349.094 303.295 349.503 307.477ZM373.92 352.886C370.58 352.886 367.614 352.33 365.023 351.216C362.455 350.08 360.42 348.375 358.92 346.102C357.443 343.807 356.705 340.932 356.705 337.477C356.705 334.568 357.216 332.114 358.239 330.114C359.261 328.114 360.67 326.489 362.466 325.239C364.261 323.989 366.33 323.045 368.67 322.409C371.011 321.75 373.511 321.307 376.17 321.08C379.148 320.807 381.545 320.523 383.364 320.227C385.182 319.909 386.5 319.466 387.318 318.898C388.159 318.307 388.58 317.477 388.58 316.409V316.239C388.58 314.489 387.977 313.136 386.773 312.182C385.568 311.227 383.943 310.75 381.898 310.75C379.693 310.75 377.92 311.227 376.58 312.182C375.239 313.136 374.386 314.455 374.023 316.136L358.648 315.591C359.102 312.409 360.273 309.568 362.159 307.068C364.068 304.545 366.682 302.568 370 301.136C373.341 299.682 377.352 298.955 382.034 298.955C385.375 298.955 388.455 299.352 391.273 300.148C394.091 300.92 396.545 302.057 398.636 303.557C400.727 305.034 402.341 306.852 403.477 309.011C404.636 311.17 405.216 313.636 405.216 316.409V352H389.534V344.705H389.125C388.193 346.477 387 347.977 385.545 349.205C384.114 350.432 382.42 351.352 380.466 351.966C378.534 352.58 376.352 352.886 373.92 352.886ZM379.068 341.977C380.864 341.977 382.477 341.614 383.909 340.886C385.364 340.159 386.523 339.159 387.386 337.886C388.25 336.591 388.682 335.091 388.682 333.386V328.409C388.205 328.659 387.625 328.886 386.943 329.091C386.284 329.295 385.557 329.489 384.761 329.67C383.966 329.852 383.148 330.011 382.307 330.148C381.466 330.284 380.659 330.409 379.886 330.523C378.318 330.773 376.977 331.159 375.864 331.682C374.773 332.205 373.932 332.886 373.341 333.727C372.773 334.545 372.489 335.523 372.489 336.659C372.489 338.386 373.102 339.705 374.33 340.614C375.58 341.523 377.159 341.977 379.068 341.977ZM415.409 352V299.636H431.602V309.182H432.148C433.102 305.727 434.659 303.159 436.818 301.477C438.977 299.773 441.489 298.92 444.352 298.92C445.125 298.92 445.92 298.977 446.739 299.091C447.557 299.182 448.318 299.33 449.023 299.534V314.023C448.227 313.75 447.182 313.534 445.886 313.375C444.614 313.216 443.477 313.136 442.477 313.136C440.5 313.136 438.716 313.58 437.125 314.466C435.557 315.33 434.318 316.545 433.409 318.114C432.523 319.659 432.08 321.477 432.08 323.568V352H415.409ZM477.574 352.989C472.097 352.989 467.369 351.909 463.392 349.75C459.438 347.568 456.392 344.466 454.256 340.443C452.142 336.398 451.085 331.591 451.085 326.023C451.085 320.614 452.153 315.886 454.29 311.841C456.426 307.773 459.438 304.614 463.324 302.364C467.21 300.091 471.79 298.955 477.062 298.955C480.79 298.955 484.199 299.534 487.29 300.693C490.381 301.852 493.051 303.568 495.301 305.841C497.551 308.114 499.301 310.92 500.551 314.261C501.801 317.58 502.426 321.386 502.426 325.682V329.841H456.915V320.159H486.915C486.892 318.386 486.472 316.807 485.653 315.42C484.835 314.034 483.71 312.955 482.278 312.182C480.869 311.386 479.244 310.989 477.403 310.989C475.54 310.989 473.869 311.409 472.392 312.25C470.915 313.068 469.744 314.193 468.881 315.625C468.017 317.034 467.563 318.636 467.517 320.432V330.284C467.517 332.42 467.938 334.295 468.778 335.909C469.619 337.5 470.812 338.739 472.358 339.625C473.903 340.511 475.744 340.955 477.881 340.955C479.358 340.955 480.699 340.75 481.903 340.341C483.108 339.932 484.142 339.33 485.006 338.534C485.869 337.739 486.517 336.761 486.949 335.602L502.256 336.045C501.619 339.477 500.222 342.466 498.062 345.011C495.926 347.534 493.119 349.5 489.642 350.909C486.165 352.295 482.142 352.989 477.574 352.989ZM111.636 468V421.455H127.909C131.152 421.455 133.826 422.015 135.932 423.136C138.038 424.242 139.606 425.735 140.636 427.614C141.667 429.477 142.182 431.545 142.182 433.818C142.182 435.818 141.826 437.47 141.114 438.773C140.417 440.076 139.492 441.106 138.341 441.864C137.205 442.621 135.97 443.182 134.636 443.545V444C136.061 444.091 137.492 444.591 138.932 445.5C140.371 446.409 141.576 447.712 142.545 449.409C143.515 451.106 144 453.182 144 455.636C144 457.97 143.47 460.068 142.409 461.932C141.348 463.795 139.674 465.273 137.386 466.364C135.098 467.455 132.121 468 128.455 468H111.636ZM117.273 463H128.455C132.136 463 134.75 462.288 136.295 460.864C137.856 459.424 138.636 457.682 138.636 455.636C138.636 454.061 138.235 452.606 137.432 451.273C136.629 449.924 135.485 448.848 134 448.045C132.515 447.227 130.758 446.818 128.727 446.818H117.273V463ZM117.273 441.909H127.727C129.424 441.909 130.955 441.576 132.318 440.909C133.697 440.242 134.788 439.303 135.591 438.091C136.409 436.879 136.818 435.455 136.818 433.818C136.818 431.773 136.106 430.038 134.682 428.614C133.258 427.174 131 426.455 127.909 426.455H117.273V441.909ZM167.17 468.727C163.807 468.727 160.905 467.985 158.466 466.5C156.042 465 154.17 462.909 152.852 460.227C151.549 457.53 150.898 454.394 150.898 450.818C150.898 447.242 151.549 444.091 152.852 441.364C154.17 438.621 156.004 436.485 158.352 434.955C160.716 433.409 163.473 432.636 166.625 432.636C168.443 432.636 170.239 432.939 172.011 433.545C173.784 434.152 175.398 435.136 176.852 436.5C178.307 437.848 179.466 439.636 180.33 441.864C181.193 444.091 181.625 446.833 181.625 450.091V452.364H154.716V447.727H176.17C176.17 445.758 175.777 444 174.989 442.455C174.216 440.909 173.11 439.689 171.67 438.795C170.246 437.902 168.564 437.455 166.625 437.455C164.489 437.455 162.64 437.985 161.08 439.045C159.534 440.091 158.345 441.455 157.511 443.136C156.678 444.818 156.261 446.621 156.261 448.545V451.636C156.261 454.273 156.716 456.508 157.625 458.341C158.549 460.159 159.83 461.545 161.466 462.5C163.102 463.439 165.004 463.909 167.17 463.909C168.58 463.909 169.852 463.712 170.989 463.318C172.14 462.909 173.133 462.303 173.966 461.5C174.799 460.682 175.443 459.667 175.898 458.455L181.08 459.909C180.534 461.667 179.617 463.212 178.33 464.545C177.042 465.864 175.451 466.894 173.557 467.636C171.663 468.364 169.534 468.727 167.17 468.727ZM203.966 468.727C200.693 468.727 197.875 467.955 195.511 466.409C193.148 464.864 191.33 462.735 190.057 460.023C188.784 457.311 188.148 454.212 188.148 450.727C188.148 447.182 188.799 444.053 190.102 441.341C191.42 438.614 193.254 436.485 195.602 434.955C197.966 433.409 200.723 432.636 203.875 432.636C206.33 432.636 208.542 433.091 210.511 434C212.481 434.909 214.095 436.182 215.352 437.818C216.61 439.455 217.39 441.364 217.693 443.545H212.33C211.92 441.955 211.011 440.545 209.602 439.318C208.208 438.076 206.33 437.455 203.966 437.455C201.875 437.455 200.042 438 198.466 439.091C196.905 440.167 195.686 441.689 194.807 443.659C193.943 445.614 193.511 447.909 193.511 450.545C193.511 453.242 193.936 455.591 194.784 457.591C195.648 459.591 196.86 461.144 198.42 462.25C199.996 463.356 201.845 463.909 203.966 463.909C205.36 463.909 206.625 463.667 207.761 463.182C208.898 462.697 209.86 462 210.648 461.091C211.436 460.182 211.996 459.091 212.33 457.818H217.693C217.39 459.879 216.64 461.735 215.443 463.386C214.261 465.023 212.693 466.326 210.739 467.295C208.799 468.25 206.542 468.727 203.966 468.727ZM235.807 468.818C233.595 468.818 231.587 468.402 229.784 467.568C227.981 466.72 226.549 465.5 225.489 463.909C224.428 462.303 223.898 460.364 223.898 458.091C223.898 456.091 224.292 454.47 225.08 453.227C225.867 451.97 226.92 450.985 228.239 450.273C229.557 449.561 231.011 449.03 232.602 448.682C234.208 448.318 235.822 448.03 237.443 447.818C239.564 447.545 241.284 447.341 242.602 447.205C243.936 447.053 244.905 446.803 245.511 446.455C246.133 446.106 246.443 445.5 246.443 444.636V444.455C246.443 442.212 245.83 440.47 244.602 439.227C243.39 437.985 241.549 437.364 239.08 437.364C236.519 437.364 234.511 437.924 233.057 439.045C231.602 440.167 230.58 441.364 229.989 442.636L224.898 440.818C225.807 438.697 227.019 437.045 228.534 435.864C230.064 434.667 231.731 433.833 233.534 433.364C235.352 432.879 237.14 432.636 238.898 432.636C240.019 432.636 241.307 432.773 242.761 433.045C244.231 433.303 245.648 433.841 247.011 434.659C248.39 435.477 249.534 436.712 250.443 438.364C251.352 440.015 251.807 442.227 251.807 445V468H246.443V463.273H246.17C245.807 464.03 245.201 464.841 244.352 465.705C243.504 466.568 242.375 467.303 240.966 467.909C239.557 468.515 237.837 468.818 235.807 468.818ZM236.625 464C238.746 464 240.534 463.583 241.989 462.75C243.458 461.917 244.564 460.841 245.307 459.523C246.064 458.205 246.443 456.818 246.443 455.364V450.455C246.216 450.727 245.716 450.977 244.943 451.205C244.186 451.417 243.307 451.606 242.307 451.773C241.322 451.924 240.36 452.061 239.42 452.182C238.496 452.288 237.746 452.379 237.17 452.455C235.777 452.636 234.473 452.932 233.261 453.341C232.064 453.735 231.095 454.333 230.352 455.136C229.625 455.924 229.261 457 229.261 458.364C229.261 460.227 229.951 461.636 231.33 462.591C232.723 463.53 234.489 464 236.625 464ZM283.597 453.727V433.091H288.96V468H283.597V462.091H283.233C282.415 463.864 281.142 465.371 279.415 466.614C277.688 467.841 275.506 468.455 272.869 468.455C270.688 468.455 268.748 467.977 267.051 467.023C265.354 466.053 264.021 464.598 263.051 462.659C262.081 460.705 261.597 458.242 261.597 455.273V433.091H266.96V454.909C266.96 457.455 267.672 459.485 269.097 461C270.536 462.515 272.369 463.273 274.597 463.273C275.93 463.273 277.286 462.932 278.665 462.25C280.059 461.568 281.225 460.523 282.165 459.114C283.119 457.705 283.597 455.909 283.597 453.727ZM323.511 440.909L318.693 442.273C318.39 441.47 317.943 440.689 317.352 439.932C316.777 439.159 315.989 438.523 314.989 438.023C313.989 437.523 312.708 437.273 311.148 437.273C309.011 437.273 307.231 437.765 305.807 438.75C304.398 439.72 303.693 440.955 303.693 442.455C303.693 443.788 304.178 444.841 305.148 445.614C306.117 446.386 307.633 447.03 309.693 447.545L314.875 448.818C317.996 449.576 320.322 450.735 321.852 452.295C323.383 453.841 324.148 455.833 324.148 458.273C324.148 460.273 323.572 462.061 322.42 463.636C321.284 465.212 319.693 466.455 317.648 467.364C315.602 468.273 313.223 468.727 310.511 468.727C306.951 468.727 304.004 467.955 301.67 466.409C299.337 464.864 297.86 462.606 297.239 459.636L302.33 458.364C302.814 460.242 303.731 461.652 305.08 462.591C306.443 463.53 308.223 464 310.42 464C312.92 464 314.905 463.47 316.375 462.409C317.86 461.333 318.602 460.045 318.602 458.545C318.602 457.333 318.178 456.318 317.33 455.5C316.481 454.667 315.178 454.045 313.42 453.636L307.602 452.273C304.405 451.515 302.057 450.341 300.557 448.75C299.072 447.144 298.33 445.136 298.33 442.727C298.33 440.758 298.883 439.015 299.989 437.5C301.11 435.985 302.633 434.795 304.557 433.932C306.496 433.068 308.693 432.636 311.148 432.636C314.602 432.636 317.314 433.394 319.284 434.909C321.269 436.424 322.678 438.424 323.511 440.909ZM346.858 468.727C343.494 468.727 340.593 467.985 338.153 466.5C335.729 465 333.858 462.909 332.54 460.227C331.237 457.53 330.585 454.394 330.585 450.818C330.585 447.242 331.237 444.091 332.54 441.364C333.858 438.621 335.691 436.485 338.04 434.955C340.403 433.409 343.161 432.636 346.312 432.636C348.131 432.636 349.926 432.939 351.699 433.545C353.472 434.152 355.085 435.136 356.54 436.5C357.994 437.848 359.153 439.636 360.017 441.864C360.881 444.091 361.312 446.833 361.312 450.091V452.364H334.403V447.727H355.858C355.858 445.758 355.464 444 354.676 442.455C353.903 440.909 352.797 439.689 351.358 438.795C349.934 437.902 348.252 437.455 346.312 437.455C344.176 437.455 342.328 437.985 340.767 439.045C339.222 440.091 338.032 441.455 337.199 443.136C336.366 444.818 335.949 446.621 335.949 448.545V451.636C335.949 454.273 336.403 456.508 337.312 458.341C338.237 460.159 339.517 461.545 341.153 462.5C342.79 463.439 344.691 463.909 346.858 463.909C348.267 463.909 349.54 463.712 350.676 463.318C351.828 462.909 352.82 462.303 353.653 461.5C354.487 460.682 355.131 459.667 355.585 458.455L360.767 459.909C360.222 461.667 359.305 463.212 358.017 464.545C356.729 465.864 355.138 466.894 353.244 467.636C351.35 468.364 349.222 468.727 346.858 468.727ZM393.369 398.182H412.222L426.983 427.398H427.597L442.358 398.182H461.21L435.676 444.682V468H418.903V444.682L393.369 398.182ZM480.634 468.989C475.134 468.989 470.406 467.864 466.452 465.614C462.52 463.341 459.486 460.182 457.349 456.136C455.236 452.068 454.179 447.352 454.179 441.989C454.179 436.602 455.236 431.886 457.349 427.841C459.486 423.773 462.52 420.614 466.452 418.364C470.406 416.091 475.134 414.955 480.634 414.955C486.134 414.955 490.849 416.091 494.781 418.364C498.736 420.614 501.77 423.773 503.884 427.841C506.02 431.886 507.088 436.602 507.088 441.989C507.088 447.352 506.02 452.068 503.884 456.136C501.77 460.182 498.736 463.341 494.781 465.614C490.849 467.864 486.134 468.989 480.634 468.989ZM480.736 456.409C482.736 456.409 484.429 455.795 485.815 454.568C487.202 453.341 488.259 451.636 488.986 449.455C489.736 447.273 490.111 444.75 490.111 441.886C490.111 438.977 489.736 436.432 488.986 434.25C488.259 432.068 487.202 430.364 485.815 429.136C484.429 427.909 482.736 427.295 480.736 427.295C478.668 427.295 476.918 427.909 475.486 429.136C474.077 430.364 472.997 432.068 472.247 434.25C471.52 436.432 471.156 438.977 471.156 441.886C471.156 444.75 471.52 447.273 472.247 449.455C472.997 451.636 474.077 453.341 475.486 454.568C476.918 455.795 478.668 456.409 480.736 456.409ZM549.412 445.398V415.636H566.048V468H550.162V458.25H549.616C548.457 461.455 546.48 464 543.685 465.886C540.912 467.75 537.56 468.682 533.628 468.682C530.06 468.682 526.923 467.864 524.219 466.227C521.514 464.591 519.412 462.307 517.912 459.375C516.412 456.42 515.651 452.966 515.628 449.011V415.636H532.298V445.739C532.321 448.58 533.071 450.818 534.548 452.455C536.026 454.091 538.037 454.909 540.582 454.909C542.241 454.909 543.73 454.545 545.048 453.818C546.389 453.068 547.446 451.989 548.219 450.58C549.014 449.148 549.412 447.42 549.412 445.398ZM660.659 423.477H643.614C643.386 421.727 642.92 420.148 642.216 418.739C641.511 417.33 640.58 416.125 639.42 415.125C638.261 414.125 636.886 413.364 635.295 412.841C633.727 412.295 631.989 412.023 630.08 412.023C626.693 412.023 623.773 412.852 621.318 414.511C618.886 416.17 617.011 418.568 615.693 421.705C614.398 424.841 613.75 428.636 613.75 433.091C613.75 437.727 614.409 441.614 615.727 444.75C617.068 447.864 618.943 450.216 621.352 451.807C623.784 453.375 626.659 454.159 629.977 454.159C631.841 454.159 633.534 453.92 635.057 453.443C636.602 452.966 637.955 452.273 639.114 451.364C640.295 450.432 641.261 449.307 642.011 447.989C642.784 446.648 643.318 445.136 643.614 443.455L660.659 443.557C660.364 446.648 659.466 449.693 657.966 452.693C656.489 455.693 654.455 458.432 651.864 460.909C649.273 463.364 646.114 465.318 642.386 466.773C638.682 468.227 634.432 468.955 629.636 468.955C623.318 468.955 617.659 467.568 612.659 464.795C607.682 462 603.75 457.932 600.864 452.591C597.977 447.25 596.534 440.75 596.534 433.091C596.534 425.409 598 418.898 600.932 413.557C603.864 408.216 607.83 404.159 612.83 401.386C617.83 398.614 623.432 397.227 629.636 397.227C633.864 397.227 637.773 397.818 641.364 399C644.955 400.159 648.114 401.864 650.841 404.114C653.568 406.341 655.784 409.08 657.489 412.33C659.193 415.58 660.25 419.295 660.659 423.477ZM685.077 468.886C681.736 468.886 678.77 468.33 676.179 467.216C673.611 466.08 671.577 464.375 670.077 462.102C668.599 459.807 667.861 456.932 667.861 453.477C667.861 450.568 668.372 448.114 669.395 446.114C670.418 444.114 671.827 442.489 673.622 441.239C675.418 439.989 677.486 439.045 679.827 438.409C682.168 437.75 684.668 437.307 687.327 437.08C690.304 436.807 692.702 436.523 694.52 436.227C696.338 435.909 697.656 435.466 698.474 434.898C699.315 434.307 699.736 433.477 699.736 432.409V432.239C699.736 430.489 699.134 429.136 697.929 428.182C696.724 427.227 695.099 426.75 693.054 426.75C690.849 426.75 689.077 427.227 687.736 428.182C686.395 429.136 685.543 430.455 685.179 432.136L669.804 431.591C670.259 428.409 671.429 425.568 673.315 423.068C675.224 420.545 677.838 418.568 681.156 417.136C684.497 415.682 688.509 414.955 693.19 414.955C696.531 414.955 699.611 415.352 702.429 416.148C705.247 416.92 707.702 418.057 709.793 419.557C711.884 421.034 713.497 422.852 714.634 425.011C715.793 427.17 716.372 429.636 716.372 432.409V468H700.69V460.705H700.281C699.349 462.477 698.156 463.977 696.702 465.205C695.27 466.432 693.577 467.352 691.622 467.966C689.69 468.58 687.509 468.886 685.077 468.886ZM690.224 457.977C692.02 457.977 693.634 457.614 695.065 456.886C696.52 456.159 697.679 455.159 698.543 453.886C699.406 452.591 699.838 451.091 699.838 449.386V444.409C699.361 444.659 698.781 444.886 698.099 445.091C697.44 445.295 696.713 445.489 695.918 445.67C695.122 445.852 694.304 446.011 693.463 446.148C692.622 446.284 691.815 446.409 691.043 446.523C689.474 446.773 688.134 447.159 687.02 447.682C685.929 448.205 685.088 448.886 684.497 449.727C683.929 450.545 683.645 451.523 683.645 452.659C683.645 454.386 684.259 455.705 685.486 456.614C686.736 457.523 688.315 457.977 690.224 457.977ZM726.565 468V415.636H742.759V425.182H743.304C744.259 421.727 745.815 419.159 747.974 417.477C750.134 415.773 752.645 414.92 755.509 414.92C756.281 414.92 757.077 414.977 757.895 415.091C758.713 415.182 759.474 415.33 760.179 415.534V430.023C759.384 429.75 758.338 429.534 757.043 429.375C755.77 429.216 754.634 429.136 753.634 429.136C751.656 429.136 749.872 429.58 748.281 430.466C746.713 431.33 745.474 432.545 744.565 434.114C743.679 435.659 743.236 437.477 743.236 439.568V468H726.565ZM788.73 468.989C783.253 468.989 778.526 467.909 774.548 465.75C770.594 463.568 767.548 460.466 765.412 456.443C763.298 452.398 762.241 447.591 762.241 442.023C762.241 436.614 763.31 431.886 765.446 427.841C767.582 423.773 770.594 420.614 774.48 418.364C778.366 416.091 782.946 414.955 788.219 414.955C791.946 414.955 795.355 415.534 798.446 416.693C801.537 417.852 804.207 419.568 806.457 421.841C808.707 424.114 810.457 426.92 811.707 430.261C812.957 433.58 813.582 437.386 813.582 441.682V445.841H768.071V436.159H798.071C798.048 434.386 797.628 432.807 796.81 431.42C795.991 430.034 794.866 428.955 793.435 428.182C792.026 427.386 790.401 426.989 788.56 426.989C786.696 426.989 785.026 427.409 783.548 428.25C782.071 429.068 780.901 430.193 780.037 431.625C779.173 433.034 778.719 434.636 778.673 436.432V446.284C778.673 448.42 779.094 450.295 779.935 451.909C780.776 453.5 781.969 454.739 783.514 455.625C785.06 456.511 786.901 456.955 789.037 456.955C790.514 456.955 791.855 456.75 793.06 456.341C794.264 455.932 795.298 455.33 796.162 454.534C797.026 453.739 797.673 452.761 798.105 451.602L813.412 452.045C812.776 455.477 811.378 458.466 809.219 461.011C807.082 463.534 804.276 465.5 800.798 466.909C797.321 468.295 793.298 468.989 788.73 468.989Z" fill="#1E2130"/>
<ellipse cx="-64" cy="111.5" rx="130" ry="186.5" fill="#F69D62"/>
<path d="M118.144 545.272V547.048H113.584V562H111.4V547.048H106.816V545.272H118.144ZM123.016 550.984C123.4 550.232 123.944 549.648 124.648 549.232C125.368 548.816 126.24 548.608 127.264 548.608V550.864H126.688C124.24 550.864 123.016 552.192 123.016 554.848V562H120.832V548.848H123.016V550.984ZM128.97 555.376C128.97 554.032 129.242 552.856 129.786 551.848C130.33 550.824 131.074 550.032 132.018 549.472C132.978 548.912 134.042 548.632 135.21 548.632C136.362 548.632 137.362 548.88 138.21 549.376C139.058 549.872 139.69 550.496 140.106 551.248V548.848H142.314V562H140.106V559.552C139.674 560.32 139.026 560.96 138.162 561.472C137.314 561.968 136.322 562.216 135.186 562.216C134.018 562.216 132.962 561.928 132.018 561.352C131.074 560.776 130.33 559.968 129.786 558.928C129.242 557.888 128.97 556.704 128.97 555.376ZM140.106 555.4C140.106 554.408 139.906 553.544 139.506 552.808C139.106 552.072 138.562 551.512 137.874 551.128C137.202 550.728 136.458 550.528 135.642 550.528C134.826 550.528 134.082 550.72 133.41 551.104C132.738 551.488 132.202 552.048 131.802 552.784C131.402 553.52 131.202 554.384 131.202 555.376C131.202 556.384 131.402 557.264 131.802 558.016C132.202 558.752 132.738 559.32 133.41 559.72C134.082 560.104 134.826 560.296 135.642 560.296C136.458 560.296 137.202 560.104 137.874 559.72C138.562 559.32 139.106 558.752 139.506 558.016C139.906 557.264 140.106 556.392 140.106 555.4ZM147.132 546.712C146.716 546.712 146.364 546.568 146.076 546.28C145.788 545.992 145.644 545.64 145.644 545.224C145.644 544.808 145.788 544.456 146.076 544.168C146.364 543.88 146.716 543.736 147.132 543.736C147.532 543.736 147.868 543.88 148.14 544.168C148.428 544.456 148.572 544.808 148.572 545.224C148.572 545.64 148.428 545.992 148.14 546.28C147.868 546.568 147.532 546.712 147.132 546.712ZM148.188 548.848V562H146.004V548.848H148.188ZM158.319 548.608C159.919 548.608 161.215 549.096 162.207 550.072C163.199 551.032 163.695 552.424 163.695 554.248V562H161.535V554.56C161.535 553.248 161.207 552.248 160.551 551.56C159.895 550.856 158.999 550.504 157.863 550.504C156.711 550.504 155.791 550.864 155.103 551.584C154.431 552.304 154.095 553.352 154.095 554.728V562H151.911V548.848H154.095V550.72C154.527 550.048 155.111 549.528 155.847 549.16C156.599 548.792 157.423 548.608 158.319 548.608ZM168.39 546.712C167.974 546.712 167.622 546.568 167.334 546.28C167.046 545.992 166.902 545.64 166.902 545.224C166.902 544.808 167.046 544.456 167.334 544.168C167.622 543.88 167.974 543.736 168.39 543.736C168.79 543.736 169.126 543.88 169.398 544.168C169.686 544.456 169.83 544.808 169.83 545.224C169.83 545.64 169.686 545.992 169.398 546.28C169.126 546.568 168.79 546.712 168.39 546.712ZM169.446 548.848V562H167.262V548.848H169.446ZM179.576 548.608C181.176 548.608 182.472 549.096 183.464 550.072C184.456 551.032 184.952 552.424 184.952 554.248V562H182.792V554.56C182.792 553.248 182.464 552.248 181.808 551.56C181.152 550.856 180.256 550.504 179.12 550.504C177.968 550.504 177.048 550.864 176.36 551.584C175.688 552.304 175.352 553.352 175.352 554.728V562H173.168V548.848H175.352V550.72C175.784 550.048 176.368 549.528 177.104 549.16C177.856 548.792 178.68 548.608 179.576 548.608ZM193.944 548.632C195.08 548.632 196.072 548.88 196.92 549.376C197.784 549.872 198.424 550.496 198.84 551.248V548.848H201.048V562.288C201.048 563.488 200.792 564.552 200.28 565.48C199.768 566.424 199.032 567.16 198.072 567.688C197.128 568.216 196.024 568.48 194.76 568.48C193.032 568.48 191.592 568.072 190.44 567.256C189.288 566.44 188.608 565.328 188.4 563.92H190.56C190.8 564.72 191.296 565.36 192.048 565.84C192.8 566.336 193.704 566.584 194.76 566.584C195.96 566.584 196.936 566.208 197.688 565.456C198.456 564.704 198.84 563.648 198.84 562.288V559.528C198.408 560.296 197.768 560.936 196.92 561.448C196.072 561.96 195.08 562.216 193.944 562.216C192.776 562.216 191.712 561.928 190.752 561.352C189.808 560.776 189.064 559.968 188.52 558.928C187.976 557.888 187.704 556.704 187.704 555.376C187.704 554.032 187.976 552.856 188.52 551.848C189.064 550.824 189.808 550.032 190.752 549.472C191.712 548.912 192.776 548.632 193.944 548.632ZM198.84 555.4C198.84 554.408 198.64 553.544 198.24 552.808C197.84 552.072 197.296 551.512 196.608 551.128C195.936 550.728 195.192 550.528 194.376 550.528C193.56 550.528 192.816 550.72 192.144 551.104C191.472 551.488 190.936 552.048 190.536 552.784C190.136 553.52 189.936 554.384 189.936 555.376C189.936 556.384 190.136 557.264 190.536 558.016C190.936 558.752 191.472 559.32 192.144 559.72C192.816 560.104 193.56 560.296 194.376 560.296C195.192 560.296 195.936 560.104 196.608 559.72C197.296 559.32 197.84 558.752 198.24 558.016C198.64 557.264 198.84 556.392 198.84 555.4ZM206.995 558.976L204.307 565.432H202.843L204.595 558.976H206.995ZM221.319 548.632C222.455 548.632 223.447 548.88 224.295 549.376C225.159 549.872 225.799 550.496 226.215 551.248V548.848H228.423V562.288C228.423 563.488 228.167 564.552 227.655 565.48C227.143 566.424 226.407 567.16 225.447 567.688C224.503 568.216 223.399 568.48 222.135 568.48C220.407 568.48 218.967 568.072 217.815 567.256C216.663 566.44 215.983 565.328 215.775 563.92H217.935C218.175 564.72 218.671 565.36 219.423 565.84C220.175 566.336 221.079 566.584 222.135 566.584C223.335 566.584 224.311 566.208 225.063 565.456C225.831 564.704 226.215 563.648 226.215 562.288V559.528C225.783 560.296 225.143 560.936 224.295 561.448C223.447 561.96 222.455 562.216 221.319 562.216C220.151 562.216 219.087 561.928 218.127 561.352C217.183 560.776 216.439 559.968 215.895 558.928C215.351 557.888 215.079 556.704 215.079 555.376C215.079 554.032 215.351 552.856 215.895 551.848C216.439 550.824 217.183 550.032 218.127 549.472C219.087 548.912 220.151 548.632 221.319 548.632ZM226.215 555.4C226.215 554.408 226.015 553.544 225.615 552.808C225.215 552.072 224.671 551.512 223.983 551.128C223.311 550.728 222.567 550.528 221.751 550.528C220.935 550.528 220.191 550.72 219.519 551.104C218.847 551.488 218.311 552.048 217.911 552.784C217.511 553.52 217.311 554.384 217.311 555.376C217.311 556.384 217.511 557.264 217.911 558.016C218.311 558.752 218.847 559.32 219.519 559.72C220.191 560.104 220.935 560.296 221.751 560.296C222.567 560.296 223.311 560.104 223.983 559.72C224.671 559.32 225.215 558.752 225.615 558.016C226.015 557.264 226.215 556.392 226.215 555.4ZM234.298 550.984C234.682 550.232 235.226 549.648 235.93 549.232C236.65 548.816 237.522 548.608 238.546 548.608V550.864H237.97C235.522 550.864 234.298 552.192 234.298 554.848V562H232.114V548.848H234.298V550.984ZM246.803 562.216C245.571 562.216 244.451 561.936 243.443 561.376C242.451 560.816 241.667 560.024 241.091 559C240.531 557.96 240.251 556.76 240.251 555.4C240.251 554.056 240.539 552.872 241.115 551.848C241.707 550.808 242.507 550.016 243.515 549.472C244.523 548.912 245.651 548.632 246.899 548.632C248.147 548.632 249.275 548.912 250.283 549.472C251.291 550.016 252.083 550.8 252.659 551.824C253.251 552.848 253.547 554.04 253.547 555.4C253.547 556.76 253.243 557.96 252.635 559C252.043 560.024 251.235 560.816 250.211 561.376C249.187 561.936 248.051 562.216 246.803 562.216ZM246.803 560.296C247.587 560.296 248.323 560.112 249.011 559.744C249.699 559.376 250.251 558.824 250.667 558.088C251.099 557.352 251.315 556.456 251.315 555.4C251.315 554.344 251.107 553.448 250.691 552.712C250.275 551.976 249.731 551.432 249.059 551.08C248.387 550.712 247.659 550.528 246.875 550.528C246.075 550.528 245.339 550.712 244.667 551.08C244.011 551.432 243.483 551.976 243.083 552.712C242.683 553.448 242.483 554.344 242.483 555.4C242.483 556.472 242.675 557.376 243.059 558.112C243.459 558.848 243.987 559.4 244.643 559.768C245.299 560.12 246.019 560.296 246.803 560.296ZM262.154 562.216C260.922 562.216 259.802 561.936 258.794 561.376C257.802 560.816 257.018 560.024 256.442 559C255.882 557.96 255.602 556.76 255.602 555.4C255.602 554.056 255.89 552.872 256.466 551.848C257.058 550.808 257.858 550.016 258.866 549.472C259.874 548.912 261.002 548.632 262.25 548.632C263.498 548.632 264.626 548.912 265.634 549.472C266.642 550.016 267.434 550.8 268.01 551.824C268.602 552.848 268.898 554.04 268.898 555.4C268.898 556.76 268.594 557.96 267.986 559C267.394 560.024 266.586 560.816 265.562 561.376C264.538 561.936 263.402 562.216 262.154 562.216ZM262.154 560.296C262.938 560.296 263.674 560.112 264.362 559.744C265.05 559.376 265.602 558.824 266.018 558.088C266.45 557.352 266.666 556.456 266.666 555.4C266.666 554.344 266.458 553.448 266.042 552.712C265.626 551.976 265.082 551.432 264.41 551.08C263.738 550.712 263.01 550.528 262.226 550.528C261.426 550.528 260.69 550.712 260.018 551.08C259.362 551.432 258.834 551.976 258.434 552.712C258.034 553.448 257.834 554.344 257.834 555.4C257.834 556.472 258.026 557.376 258.41 558.112C258.81 558.848 259.338 559.4 259.994 559.768C260.65 560.12 261.37 560.296 262.154 560.296ZM287.586 548.608C288.61 548.608 289.522 548.824 290.322 549.256C291.122 549.672 291.754 550.304 292.218 551.152C292.682 552 292.914 553.032 292.914 554.248V562H290.754V554.56C290.754 553.248 290.426 552.248 289.77 551.56C289.13 550.856 288.258 550.504 287.154 550.504C286.018 550.504 285.114 550.872 284.442 551.608C283.77 552.328 283.434 553.376 283.434 554.752V562H281.274V554.56C281.274 553.248 280.946 552.248 280.29 551.56C279.65 550.856 278.778 550.504 277.674 550.504C276.538 550.504 275.634 550.872 274.962 551.608C274.29 552.328 273.954 553.376 273.954 554.752V562H271.77V548.848H273.954V550.744C274.386 550.056 274.962 549.528 275.682 549.16C276.418 548.792 277.226 548.608 278.106 548.608C279.21 548.608 280.186 548.856 281.034 549.352C281.882 549.848 282.514 550.576 282.93 551.536C283.298 550.608 283.906 549.888 284.754 549.376C285.602 548.864 286.546 548.608 287.586 548.608ZM297.624 546.712C297.208 546.712 296.856 546.568 296.568 546.28C296.28 545.992 296.136 545.64 296.136 545.224C296.136 544.808 296.28 544.456 296.568 544.168C296.856 543.88 297.208 543.736 297.624 543.736C298.024 543.736 298.36 543.88 298.632 544.168C298.92 544.456 299.064 544.808 299.064 545.224C299.064 545.64 298.92 545.992 298.632 546.28C298.36 546.568 298.024 546.712 297.624 546.712ZM298.68 548.848V562H296.496V548.848H298.68ZM308.811 548.608C310.411 548.608 311.707 549.096 312.699 550.072C313.691 551.032 314.187 552.424 314.187 554.248V562H312.027V554.56C312.027 553.248 311.699 552.248 311.043 551.56C310.387 550.856 309.491 550.504 308.355 550.504C307.203 550.504 306.283 550.864 305.595 551.584C304.923 552.304 304.587 553.352 304.587 554.728V562H302.403V548.848H304.587V550.72C305.019 550.048 305.603 549.528 306.339 549.16C307.091 548.792 307.915 548.608 308.811 548.608ZM323.178 548.632C324.314 548.632 325.306 548.88 326.154 549.376C327.018 549.872 327.658 550.496 328.074 551.248V548.848H330.282V562.288C330.282 563.488 330.026 564.552 329.514 565.48C329.002 566.424 328.266 567.16 327.306 567.688C326.362 568.216 325.258 568.48 323.994 568.48C322.266 568.48 320.826 568.072 319.674 567.256C318.522 566.44 317.842 565.328 317.634 563.92H319.794C320.034 564.72 320.53 565.36 321.282 565.84C322.034 566.336 322.938 566.584 323.994 566.584C325.194 566.584 326.17 566.208 326.922 565.456C327.69 564.704 328.074 563.648 328.074 562.288V559.528C327.642 560.296 327.002 560.936 326.154 561.448C325.306 561.96 324.314 562.216 323.178 562.216C322.01 562.216 320.946 561.928 319.986 561.352C319.042 560.776 318.298 559.968 317.754 558.928C317.21 557.888 316.938 556.704 316.938 555.376C316.938 554.032 317.21 552.856 317.754 551.848C318.298 550.824 319.042 550.032 319.986 549.472C320.946 548.912 322.01 548.632 323.178 548.632ZM328.074 555.4C328.074 554.408 327.874 553.544 327.474 552.808C327.074 552.072 326.53 551.512 325.842 551.128C325.17 550.728 324.426 550.528 323.61 550.528C322.794 550.528 322.05 550.72 321.378 551.104C320.706 551.488 320.17 552.048 319.77 552.784C319.37 553.52 319.17 554.384 319.17 555.376C319.17 556.384 319.37 557.264 319.77 558.016C320.17 558.752 320.706 559.32 321.378 559.72C322.05 560.104 322.794 560.296 323.61 560.296C324.426 560.296 325.17 560.104 325.842 559.72C326.53 559.32 327.074 558.752 327.474 558.016C327.874 557.264 328.074 556.392 328.074 555.4ZM343.035 550.648V558.4C343.035 559.04 343.171 559.496 343.443 559.768C343.715 560.024 344.187 560.152 344.859 560.152H346.467V562H344.499C343.283 562 342.371 561.72 341.763 561.16C341.155 560.6 340.851 559.68 340.851 558.4V550.648H339.147V548.848H340.851V545.536H343.035V548.848H346.467V550.648H343.035ZM354.85 562.216C353.618 562.216 352.498 561.936 351.49 561.376C350.498 560.816 349.714 560.024 349.138 559C348.578 557.96 348.298 556.76 348.298 555.4C348.298 554.056 348.586 552.872 349.162 551.848C349.754 550.808 350.554 550.016 351.562 549.472C352.57 548.912 353.698 548.632 354.946 548.632C356.194 548.632 357.322 548.912 358.33 549.472C359.338 550.016 360.13 550.8 360.706 551.824C361.298 552.848 361.594 554.04 361.594 555.4C361.594 556.76 361.29 557.96 360.682 559C360.09 560.024 359.282 560.816 358.258 561.376C357.234 561.936 356.098 562.216 354.85 562.216ZM354.85 560.296C355.634 560.296 356.37 560.112 357.058 559.744C357.746 559.376 358.298 558.824 358.714 558.088C359.146 557.352 359.362 556.456 359.362 555.4C359.362 554.344 359.154 553.448 358.738 552.712C358.322 551.976 357.778 551.432 357.106 551.08C356.434 550.712 355.706 550.528 354.922 550.528C354.122 550.528 353.386 550.712 352.714 551.08C352.058 551.432 351.53 551.976 351.13 552.712C350.73 553.448 350.53 554.344 350.53 555.4C350.53 556.472 350.722 557.376 351.106 558.112C351.506 558.848 352.034 559.4 352.69 559.768C353.346 560.12 354.066 560.296 354.85 560.296ZM377.272 548.608C378.872 548.608 380.168 549.096 381.16 550.072C382.152 551.032 382.648 552.424 382.648 554.248V562H380.488V554.56C380.488 553.248 380.16 552.248 379.504 551.56C378.848 550.856 377.952 550.504 376.816 550.504C375.664 550.504 374.744 550.864 374.056 551.584C373.384 552.304 373.048 553.352 373.048 554.728V562H370.864V548.848H373.048V550.72C373.48 550.048 374.064 549.528 374.8 549.16C375.552 548.792 376.376 548.608 377.272 548.608ZM397.879 548.848V562H395.695V560.056C395.279 560.728 394.695 561.256 393.943 561.64C393.207 562.008 392.391 562.192 391.495 562.192C390.471 562.192 389.551 561.984 388.735 561.568C387.919 561.136 387.271 560.496 386.791 559.648C386.327 558.8 386.095 557.768 386.095 556.552V548.848H388.255V556.264C388.255 557.56 388.583 558.56 389.239 559.264C389.895 559.952 390.791 560.296 391.927 560.296C393.095 560.296 394.015 559.936 394.687 559.216C395.359 558.496 395.695 557.448 395.695 556.072V548.848H397.879ZM404.231 550.648V558.4C404.231 559.04 404.367 559.496 404.639 559.768C404.911 560.024 405.383 560.152 406.055 560.152H407.663V562H405.695C404.479 562 403.567 561.72 402.959 561.16C402.351 560.6 402.047 559.68 402.047 558.4V550.648H400.343V548.848H402.047V545.536H404.231V548.848H407.663V550.648H404.231ZM412.493 550.984C412.877 550.232 413.421 549.648 414.125 549.232C414.845 548.816 415.717 548.608 416.741 548.608V550.864H416.165C413.717 550.864 412.493 552.192 412.493 554.848V562H410.309V548.848H412.493V550.984ZM420.39 546.712C419.974 546.712 419.622 546.568 419.334 546.28C419.046 545.992 418.902 545.64 418.902 545.224C418.902 544.808 419.046 544.456 419.334 544.168C419.622 543.88 419.974 543.736 420.39 543.736C420.79 543.736 421.126 543.88 421.398 544.168C421.686 544.456 421.83 544.808 421.83 545.224C421.83 545.64 421.686 545.992 421.398 546.28C421.126 546.568 420.79 546.712 420.39 546.712ZM421.446 548.848V562H419.262V548.848H421.446ZM427.832 550.648V558.4C427.832 559.04 427.968 559.496 428.24 559.768C428.512 560.024 428.984 560.152 429.656 560.152H431.264V562H429.296C428.08 562 427.168 561.72 426.56 561.16C425.952 560.6 425.648 559.68 425.648 558.4V550.648H423.944V548.848H425.648V545.536H427.832V548.848H431.264V550.648H427.832ZM435.039 546.712C434.623 546.712 434.271 546.568 433.983 546.28C433.695 545.992 433.551 545.64 433.551 545.224C433.551 544.808 433.695 544.456 433.983 544.168C434.271 543.88 434.623 543.736 435.039 543.736C435.439 543.736 435.775 543.88 436.047 544.168C436.335 544.456 436.479 544.808 436.479 545.224C436.479 545.64 436.335 545.992 436.047 546.28C435.775 546.568 435.439 546.712 435.039 546.712ZM436.095 548.848V562H433.911V548.848H436.095ZM445.553 562.216C444.321 562.216 443.201 561.936 442.193 561.376C441.201 560.816 440.417 560.024 439.841 559C439.281 557.96 439.001 556.76 439.001 555.4C439.001 554.056 439.289 552.872 439.865 551.848C440.457 550.808 441.257 550.016 442.265 549.472C443.273 548.912 444.401 548.632 445.649 548.632C446.897 548.632 448.025 548.912 449.033 549.472C450.041 550.016 450.833 550.8 451.409 551.824C452.001 552.848 452.297 554.04 452.297 555.4C452.297 556.76 451.993 557.96 451.385 559C450.793 560.024 449.985 560.816 448.961 561.376C447.937 561.936 446.801 562.216 445.553 562.216ZM445.553 560.296C446.337 560.296 447.073 560.112 447.761 559.744C448.449 559.376 449.001 558.824 449.417 558.088C449.849 557.352 450.065 556.456 450.065 555.4C450.065 554.344 449.857 553.448 449.441 552.712C449.025 551.976 448.481 551.432 447.809 551.08C447.137 550.712 446.409 550.528 445.625 550.528C444.825 550.528 444.089 550.712 443.417 551.08C442.761 551.432 442.233 551.976 441.833 552.712C441.433 553.448 441.233 554.344 441.233 555.4C441.233 556.472 441.425 557.376 441.809 558.112C442.209 558.848 442.737 559.4 443.393 559.768C444.049 560.12 444.769 560.296 445.553 560.296ZM461.576 548.608C463.176 548.608 464.472 549.096 465.464 550.072C466.456 551.032 466.952 552.424 466.952 554.248V562H464.792V554.56C464.792 553.248 464.464 552.248 463.808 551.56C463.152 550.856 462.256 550.504 461.12 550.504C459.968 550.504 459.048 550.864 458.36 551.584C457.688 552.304 457.352 553.352 457.352 554.728V562H455.168V548.848H457.352V550.72C457.784 550.048 458.368 549.528 459.104 549.16C459.856 548.792 460.68 548.608 461.576 548.608ZM489.758 562L487.574 559.792C486.758 560.64 485.886 561.272 484.958 561.688C484.03 562.088 482.982 562.288 481.814 562.288C480.662 562.288 479.638 562.08 478.742 561.664C477.862 561.248 477.174 560.656 476.678 559.888C476.198 559.12 475.958 558.224 475.958 557.2C475.958 556.032 476.286 555.008 476.942 554.128C477.614 553.232 478.598 552.528 479.894 552.016C479.382 551.408 479.014 550.848 478.79 550.336C478.566 549.824 478.454 549.264 478.454 548.656C478.454 547.952 478.63 547.32 478.982 546.76C479.35 546.184 479.87 545.736 480.542 545.416C481.214 545.096 481.99 544.936 482.87 544.936C483.734 544.936 484.486 545.104 485.126 545.44C485.766 545.776 486.246 546.248 486.566 546.856C486.886 547.448 487.03 548.112 486.998 548.848H484.814C484.83 548.192 484.646 547.68 484.262 547.312C483.878 546.928 483.382 546.736 482.774 546.736C482.134 546.736 481.614 546.92 481.214 547.288C480.83 547.64 480.638 548.096 480.638 548.656C480.638 549.136 480.766 549.6 481.022 550.048C481.294 550.496 481.742 551.048 482.366 551.704L487.358 556.72L487.79 556.048L489.422 553.312H491.774L489.806 556.72C489.534 557.2 489.214 557.704 488.846 558.232L492.614 562H489.758ZM481.814 560.416C482.678 560.416 483.454 560.248 484.142 559.912C484.846 559.576 485.51 559.056 486.134 558.352L481.214 553.408C479.166 554.192 478.142 555.432 478.142 557.128C478.142 558.072 478.478 558.856 479.15 559.48C479.838 560.104 480.726 560.416 481.814 560.416ZM513.059 554.92C513.059 555.336 513.035 555.776 512.987 556.24H502.475C502.555 557.536 502.995 558.552 503.795 559.288C504.611 560.008 505.595 560.368 506.747 560.368C507.691 560.368 508.475 560.152 509.099 559.72C509.739 559.272 510.187 558.68 510.443 557.944H512.795C512.443 559.208 511.739 560.24 510.683 561.04C509.627 561.824 508.315 562.216 506.747 562.216C505.499 562.216 504.379 561.936 503.387 561.376C502.411 560.816 501.643 560.024 501.083 559C500.523 557.96 500.243 556.76 500.243 555.4C500.243 554.04 500.515 552.848 501.059 551.824C501.603 550.8 502.363 550.016 503.339 549.472C504.331 548.912 505.467 548.632 506.747 548.632C507.995 548.632 509.099 548.904 510.059 549.448C511.019 549.992 511.755 550.744 512.267 551.704C512.795 552.648 513.059 553.72 513.059 554.92ZM510.803 554.464C510.803 553.632 510.619 552.92 510.251 552.328C509.883 551.72 509.379 551.264 508.739 550.96C508.115 550.64 507.419 550.48 506.651 550.48C505.547 550.48 504.603 550.832 503.819 551.536C503.051 552.24 502.611 553.216 502.499 554.464H510.803ZM522.806 562L519.686 557.104L516.686 562H514.406L518.654 555.472L514.406 548.848H516.878L519.998 553.72L522.974 548.848H525.254L521.03 555.352L525.278 562H522.806ZM539.426 554.92C539.426 555.336 539.402 555.776 539.354 556.24H528.842C528.922 557.536 529.362 558.552 530.162 559.288C530.978 560.008 531.962 560.368 533.114 560.368C534.058 560.368 534.842 560.152 535.466 559.72C536.106 559.272 536.554 558.68 536.81 557.944H539.162C538.81 559.208 538.106 560.24 537.05 561.04C535.994 561.824 534.682 562.216 533.114 562.216C531.866 562.216 530.746 561.936 529.754 561.376C528.778 560.816 528.01 560.024 527.45 559C526.89 557.96 526.61 556.76 526.61 555.4C526.61 554.04 526.882 552.848 527.426 551.824C527.97 550.8 528.73 550.016 529.706 549.472C530.698 548.912 531.834 548.632 533.114 548.632C534.362 548.632 535.466 548.904 536.426 549.448C537.386 549.992 538.122 550.744 538.634 551.704C539.162 552.648 539.426 553.72 539.426 554.92ZM537.17 554.464C537.17 553.632 536.986 552.92 536.618 552.328C536.25 551.72 535.746 551.264 535.106 550.96C534.482 550.64 533.786 550.48 533.018 550.48C531.914 550.48 530.97 550.832 530.186 551.536C529.418 552.24 528.978 553.216 528.866 554.464H537.17ZM544.493 550.984C544.877 550.232 545.421 549.648 546.125 549.232C546.845 548.816 547.717 548.608 548.741 548.608V550.864H548.165C545.717 550.864 544.493 552.192 544.493 554.848V562H542.309V548.848H544.493V550.984ZM550.446 555.4C550.446 554.04 550.718 552.856 551.262 551.848C551.806 550.824 552.558 550.032 553.518 549.472C554.494 548.912 555.606 548.632 556.854 548.632C558.47 548.632 559.798 549.024 560.838 549.808C561.894 550.592 562.59 551.68 562.926 553.072H560.574C560.35 552.272 559.91 551.64 559.254 551.176C558.614 550.712 557.814 550.48 556.854 550.48C555.606 550.48 554.598 550.912 553.83 551.776C553.062 552.624 552.678 553.832 552.678 555.4C552.678 556.984 553.062 558.208 553.83 559.072C554.598 559.936 555.606 560.368 556.854 560.368C557.814 560.368 558.614 560.144 559.254 559.696C559.894 559.248 560.334 558.608 560.574 557.776H562.926C562.574 559.12 561.87 560.2 560.814 561.016C559.758 561.816 558.438 562.216 556.854 562.216C555.606 562.216 554.494 561.936 553.518 561.376C552.558 560.816 551.806 560.024 551.262 559C550.718 557.976 550.446 556.776 550.446 555.4ZM566.968 546.712C566.552 546.712 566.2 546.568 565.912 546.28C565.624 545.992 565.48 545.64 565.48 545.224C565.48 544.808 565.624 544.456 565.912 544.168C566.2 543.88 566.552 543.736 566.968 543.736C567.368 543.736 567.704 543.88 567.976 544.168C568.264 544.456 568.408 544.808 568.408 545.224C568.408 545.64 568.264 545.992 567.976 546.28C567.704 546.568 567.368 546.712 566.968 546.712ZM568.024 548.848V562H565.84V548.848H568.024ZM576.402 562.216C575.394 562.216 574.49 562.048 573.69 561.712C572.89 561.36 572.258 560.88 571.794 560.272C571.33 559.648 571.074 558.936 571.026 558.136H573.282C573.346 558.792 573.65 559.328 574.194 559.744C574.754 560.16 575.482 560.368 576.378 560.368C577.21 560.368 577.866 560.184 578.346 559.816C578.826 559.448 579.066 558.984 579.066 558.424C579.066 557.848 578.81 557.424 578.298 557.152C577.786 556.864 576.994 556.584 575.922 556.312C574.946 556.056 574.146 555.8 573.522 555.544C572.914 555.272 572.386 554.88 571.938 554.368C571.506 553.84 571.29 553.152 571.29 552.304C571.29 551.632 571.49 551.016 571.89 550.456C572.29 549.896 572.858 549.456 573.594 549.136C574.33 548.8 575.17 548.632 576.114 548.632C577.57 548.632 578.746 549 579.642 549.736C580.538 550.472 581.018 551.48 581.082 552.76H578.898C578.85 552.072 578.57 551.52 578.058 551.104C577.562 550.688 576.89 550.48 576.042 550.48C575.258 550.48 574.634 550.648 574.17 550.984C573.706 551.32 573.474 551.76 573.474 552.304C573.474 552.736 573.61 553.096 573.882 553.384C574.17 553.656 574.522 553.88 574.938 554.056C575.37 554.216 575.962 554.4 576.714 554.608C577.658 554.864 578.426 555.12 579.018 555.376C579.61 555.616 580.114 555.984 580.53 556.48C580.962 556.976 581.186 557.624 581.202 558.424C581.202 559.144 581.002 559.792 580.602 560.368C580.202 560.944 579.634 561.4 578.898 561.736C578.178 562.056 577.346 562.216 576.402 562.216ZM596.286 554.92C596.286 555.336 596.262 555.776 596.214 556.24H585.702C585.782 557.536 586.222 558.552 587.022 559.288C587.838 560.008 588.822 560.368 589.974 560.368C590.918 560.368 591.702 560.152 592.326 559.72C592.966 559.272 593.414 558.68 593.67 557.944H596.022C595.67 559.208 594.966 560.24 593.91 561.04C592.854 561.824 591.542 562.216 589.974 562.216C588.726 562.216 587.606 561.936 586.614 561.376C585.638 560.816 584.87 560.024 584.31 559C583.75 557.96 583.47 556.76 583.47 555.4C583.47 554.04 583.742 552.848 584.286 551.824C584.83 550.8 585.59 550.016 586.566 549.472C587.558 548.912 588.694 548.632 589.974 548.632C591.222 548.632 592.326 548.904 593.286 549.448C594.246 549.992 594.982 550.744 595.494 551.704C596.022 552.648 596.286 553.72 596.286 554.92ZM594.03 554.464C594.03 553.632 593.846 552.92 593.478 552.328C593.11 551.72 592.606 551.264 591.966 550.96C591.342 550.64 590.646 550.48 589.878 550.48C588.774 550.48 587.83 550.832 587.046 551.536C586.278 552.24 585.838 553.216 585.726 554.464H594.03ZM601.424 558.976L598.736 565.432H597.272L599.024 558.976H601.424ZM110.512 594.648V602.4C110.512 603.04 110.648 603.496 110.92 603.768C111.192 604.024 111.664 604.152 112.336 604.152H113.944V606H111.976C110.76 606 109.848 605.72 109.24 605.16C108.632 604.6 108.328 603.68 108.328 602.4V594.648H106.624V592.848H108.328V589.536H110.512V592.848H113.944V594.648H110.512ZM123.118 592.608C124.11 592.608 125.006 592.824 125.806 593.256C126.606 593.672 127.23 594.304 127.678 595.152C128.142 596 128.374 597.032 128.374 598.248V606H126.214V598.56C126.214 597.248 125.886 596.248 125.23 595.56C124.574 594.856 123.678 594.504 122.542 594.504C121.39 594.504 120.47 594.864 119.782 595.584C119.11 596.304 118.774 597.352 118.774 598.728V606H116.59V588.24H118.774V594.72C119.206 594.048 119.798 593.528 120.55 593.16C121.318 592.792 122.174 592.608 123.118 592.608ZM143.942 598.92C143.942 599.336 143.918 599.776 143.87 600.24H133.358C133.438 601.536 133.878 602.552 134.678 603.288C135.494 604.008 136.478 604.368 137.63 604.368C138.574 604.368 139.358 604.152 139.982 603.72C140.622 603.272 141.07 602.68 141.326 601.944H143.678C143.326 603.208 142.622 604.24 141.566 605.04C140.51 605.824 139.198 606.216 137.63 606.216C136.382 606.216 135.262 605.936 134.27 605.376C133.294 604.816 132.526 604.024 131.966 603C131.406 601.96 131.126 600.76 131.126 599.4C131.126 598.04 131.398 596.848 131.942 595.824C132.486 594.8 133.246 594.016 134.222 593.472C135.214 592.912 136.35 592.632 137.63 592.632C138.878 592.632 139.982 592.904 140.942 593.448C141.902 593.992 142.638 594.744 143.15 595.704C143.678 596.648 143.942 597.72 143.942 598.92ZM141.686 598.464C141.686 597.632 141.502 596.92 141.134 596.328C140.766 595.72 140.262 595.264 139.622 594.96C138.998 594.64 138.302 594.48 137.534 594.48C136.43 594.48 135.486 594.832 134.702 595.536C133.934 596.24 133.494 597.216 133.382 598.464H141.686ZM149.009 594.984C149.393 594.232 149.937 593.648 150.641 593.232C151.361 592.816 152.233 592.608 153.257 592.608V594.864H152.681C150.233 594.864 149.009 596.192 149.009 598.848V606H146.825V592.848H149.009V594.984ZM167.778 598.92C167.778 599.336 167.754 599.776 167.706 600.24H157.194C157.274 601.536 157.714 602.552 158.514 603.288C159.33 604.008 160.314 604.368 161.466 604.368C162.41 604.368 163.194 604.152 163.818 603.72C164.458 603.272 164.906 602.68 165.162 601.944H167.514C167.162 603.208 166.458 604.24 165.402 605.04C164.346 605.824 163.034 606.216 161.466 606.216C160.218 606.216 159.098 605.936 158.106 605.376C157.13 604.816 156.362 604.024 155.802 603C155.242 601.96 154.962 600.76 154.962 599.4C154.962 598.04 155.234 596.848 155.778 595.824C156.322 594.8 157.082 594.016 158.058 593.472C159.05 592.912 160.186 592.632 161.466 592.632C162.714 592.632 163.818 592.904 164.778 593.448C165.738 593.992 166.474 594.744 166.986 595.704C167.514 596.648 167.778 597.72 167.778 598.92ZM165.522 598.464C165.522 597.632 165.338 596.92 164.97 596.328C164.602 595.72 164.098 595.264 163.458 594.96C162.834 594.64 162.138 594.48 161.37 594.48C160.266 594.48 159.322 594.832 158.538 595.536C157.77 596.24 157.33 597.216 157.218 598.464H165.522ZM170.997 589.272H173.421L171.117 594.72H169.581L170.997 589.272ZM180.567 606.216C179.559 606.216 178.655 606.048 177.855 605.712C177.055 605.36 176.423 604.88 175.959 604.272C175.495 603.648 175.239 602.936 175.191 602.136H177.447C177.511 602.792 177.815 603.328 178.359 603.744C178.919 604.16 179.647 604.368 180.543 604.368C181.375 604.368 182.031 604.184 182.511 603.816C182.991 603.448 183.231 602.984 183.231 602.424C183.231 601.848 182.975 601.424 182.463 601.152C181.951 600.864 181.159 600.584 180.087 600.312C179.111 600.056 178.311 599.8 177.687 599.544C177.079 599.272 176.551 598.88 176.103 598.368C175.671 597.84 175.455 597.152 175.455 596.304C175.455 595.632 175.655 595.016 176.055 594.456C176.455 593.896 177.023 593.456 177.759 593.136C178.495 592.8 179.335 592.632 180.279 592.632C181.735 592.632 182.911 593 183.807 593.736C184.703 594.472 185.183 595.48 185.247 596.76H183.063C183.015 596.072 182.735 595.52 182.223 595.104C181.727 594.688 181.055 594.48 180.207 594.48C179.423 594.48 178.799 594.648 178.335 594.984C177.871 595.32 177.639 595.76 177.639 596.304C177.639 596.736 177.775 597.096 178.047 597.384C178.335 597.656 178.687 597.88 179.103 598.056C179.535 598.216 180.127 598.4 180.879 598.608C181.823 598.864 182.591 599.12 183.183 599.376C183.775 599.616 184.279 599.984 184.695 600.48C185.127 600.976 185.351 601.624 185.367 602.424C185.367 603.144 185.167 603.792 184.767 604.368C184.367 604.944 183.799 605.4 183.063 605.736C182.343 606.056 181.511 606.216 180.567 606.216ZM194.032 599.4C194.032 598.04 194.304 596.856 194.848 595.848C195.392 594.824 196.144 594.032 197.104 593.472C198.08 592.912 199.192 592.632 200.44 592.632C202.056 592.632 203.384 593.024 204.424 593.808C205.48 594.592 206.176 595.68 206.512 597.072H204.16C203.936 596.272 203.496 595.64 202.84 595.176C202.2 594.712 201.4 594.48 200.44 594.48C199.192 594.48 198.184 594.912 197.416 595.776C196.648 596.624 196.264 597.832 196.264 599.4C196.264 600.984 196.648 602.208 197.416 603.072C198.184 603.936 199.192 604.368 200.44 604.368C201.4 604.368 202.2 604.144 202.84 603.696C203.48 603.248 203.92 602.608 204.16 601.776H206.512C206.16 603.12 205.456 604.2 204.4 605.016C203.344 605.816 202.024 606.216 200.44 606.216C199.192 606.216 198.08 605.936 197.104 605.376C196.144 604.816 195.392 604.024 194.848 603C194.304 601.976 194.032 600.776 194.032 599.4ZM208.61 599.376C208.61 598.032 208.882 596.856 209.426 595.848C209.97 594.824 210.714 594.032 211.658 593.472C212.618 592.912 213.682 592.632 214.85 592.632C216.002 592.632 217.002 592.88 217.85 593.376C218.698 593.872 219.33 594.496 219.746 595.248V592.848H221.954V606H219.746V603.552C219.314 604.32 218.666 604.96 217.802 605.472C216.954 605.968 215.962 606.216 214.826 606.216C213.658 606.216 212.602 605.928 211.658 605.352C210.714 604.776 209.97 603.968 209.426 602.928C208.882 601.888 208.61 600.704 208.61 599.376ZM219.746 599.4C219.746 598.408 219.546 597.544 219.146 596.808C218.746 596.072 218.202 595.512 217.514 595.128C216.842 594.728 216.098 594.528 215.282 594.528C214.466 594.528 213.722 594.72 213.05 595.104C212.378 595.488 211.842 596.048 211.442 596.784C211.042 597.52 210.842 598.384 210.842 599.376C210.842 600.384 211.042 601.264 211.442 602.016C211.842 602.752 212.378 603.32 213.05 603.72C213.722 604.104 214.466 604.296 215.282 604.296C216.098 604.296 216.842 604.104 217.514 603.72C218.202 603.32 218.746 602.752 219.146 602.016C219.546 601.264 219.746 600.392 219.746 599.4ZM227.829 594.984C228.213 594.232 228.757 593.648 229.461 593.232C230.181 592.816 231.053 592.608 232.077 592.608V594.864H231.501C229.053 594.864 227.829 596.192 227.829 598.848V606H225.645V592.848H227.829V594.984ZM235.726 590.712C235.31 590.712 234.958 590.568 234.67 590.28C234.382 589.992 234.238 589.64 234.238 589.224C234.238 588.808 234.382 588.456 234.67 588.168C234.958 587.88 235.31 587.736 235.726 587.736C236.126 587.736 236.462 587.88 236.734 588.168C237.022 588.456 237.166 588.808 237.166 589.224C237.166 589.64 237.022 589.992 236.734 590.28C236.462 590.568 236.126 590.712 235.726 590.712ZM236.782 592.848V606H234.598V592.848H236.782ZM246.912 592.608C248.512 592.608 249.808 593.096 250.8 594.072C251.792 595.032 252.288 596.424 252.288 598.248V606H250.128V598.56C250.128 597.248 249.8 596.248 249.144 595.56C248.488 594.856 247.592 594.504 246.456 594.504C245.304 594.504 244.384 594.864 243.696 595.584C243.024 596.304 242.688 597.352 242.688 598.728V606H240.504V592.848H242.688V594.72C243.12 594.048 243.704 593.528 244.44 593.16C245.192 592.792 246.016 592.608 246.912 592.608ZM261.28 592.632C262.416 592.632 263.408 592.88 264.256 593.376C265.12 593.872 265.76 594.496 266.176 595.248V592.848H268.384V606.288C268.384 607.488 268.128 608.552 267.616 609.48C267.104 610.424 266.368 611.16 265.408 611.688C264.464 612.216 263.36 612.48 262.096 612.48C260.368 612.48 258.928 612.072 257.776 611.256C256.624 610.44 255.944 609.328 255.736 607.92H257.896C258.136 608.72 258.632 609.36 259.384 609.84C260.136 610.336 261.04 610.584 262.096 610.584C263.296 610.584 264.272 610.208 265.024 609.456C265.792 608.704 266.176 607.648 266.176 606.288V603.528C265.744 604.296 265.104 604.936 264.256 605.448C263.408 605.96 262.416 606.216 261.28 606.216C260.112 606.216 259.048 605.928 258.088 605.352C257.144 604.776 256.4 603.968 255.856 602.928C255.312 601.888 255.04 600.704 255.04 599.376C255.04 598.032 255.312 596.856 255.856 595.848C256.4 594.824 257.144 594.032 258.088 593.472C259.048 592.912 260.112 592.632 261.28 592.632ZM266.176 599.4C266.176 598.408 265.976 597.544 265.576 596.808C265.176 596.072 264.632 595.512 263.944 595.128C263.272 594.728 262.528 594.528 261.712 594.528C260.896 594.528 260.152 594.72 259.48 595.104C258.808 595.488 258.272 596.048 257.872 596.784C257.472 597.52 257.272 598.384 257.272 599.376C257.272 600.384 257.472 601.264 257.872 602.016C258.272 602.752 258.808 603.32 259.48 603.72C260.152 604.104 260.896 604.296 261.712 604.296C262.528 604.296 263.272 604.104 263.944 603.72C264.632 603.32 265.176 602.752 265.576 602.016C265.976 601.264 266.176 600.392 266.176 599.4ZM295.993 592.848L291.889 606H289.633L286.465 595.56L283.297 606H281.041L276.913 592.848H279.145L282.169 603.888L285.433 592.848H287.665L290.857 603.912L293.833 592.848H295.993ZM303.897 606.216C302.665 606.216 301.545 605.936 300.537 605.376C299.545 604.816 298.761 604.024 298.185 603C297.625 601.96 297.345 600.76 297.345 599.4C297.345 598.056 297.633 596.872 298.209 595.848C298.801 594.808 299.601 594.016 300.609 593.472C301.617 592.912 302.745 592.632 303.993 592.632C305.241 592.632 306.369 592.912 307.377 593.472C308.385 594.016 309.177 594.8 309.753 595.824C310.345 596.848 310.641 598.04 310.641 599.4C310.641 600.76 310.337 601.96 309.729 603C309.137 604.024 308.329 604.816 307.305 605.376C306.281 605.936 305.145 606.216 303.897 606.216ZM303.897 604.296C304.681 604.296 305.417 604.112 306.105 603.744C306.793 603.376 307.345 602.824 307.761 602.088C308.193 601.352 308.409 600.456 308.409 599.4C308.409 598.344 308.201 597.448 307.785 596.712C307.369 595.976 306.825 595.432 306.153 595.08C305.481 594.712 304.753 594.528 303.969 594.528C303.169 594.528 302.433 594.712 301.761 595.08C301.105 595.432 300.577 595.976 300.177 596.712C299.777 597.448 299.577 598.344 299.577 599.4C299.577 600.472 299.769 601.376 300.153 602.112C300.553 602.848 301.081 603.4 301.737 603.768C302.393 604.12 303.113 604.296 303.897 604.296ZM315.696 594.984C316.08 594.232 316.624 593.648 317.328 593.232C318.048 592.816 318.92 592.608 319.944 592.608V594.864H319.368C316.92 594.864 315.696 596.192 315.696 598.848V606H313.512V592.848H315.696V594.984ZM325.129 594.648V602.4C325.129 603.04 325.265 603.496 325.537 603.768C325.809 604.024 326.281 604.152 326.953 604.152H328.561V606H326.593C325.377 606 324.465 605.72 323.857 605.16C323.249 604.6 322.945 603.68 322.945 602.4V594.648H321.241V592.848H322.945V589.536H325.129V592.848H328.561V594.648H325.129ZM337.735 592.608C338.727 592.608 339.623 592.824 340.423 593.256C341.223 593.672 341.847 594.304 342.295 595.152C342.759 596 342.991 597.032 342.991 598.248V606H340.831V598.56C340.831 597.248 340.503 596.248 339.847 595.56C339.191 594.856 338.295 594.504 337.159 594.504C336.007 594.504 335.087 594.864 334.399 595.584C333.727 596.304 333.391 597.352 333.391 598.728V606H331.207V588.24H333.391V594.72C333.823 594.048 334.415 593.528 335.167 593.16C335.935 592.792 336.791 592.608 337.735 592.608ZM358.693 606.216C357.461 606.216 356.341 605.936 355.333 605.376C354.341 604.816 353.557 604.024 352.981 603C352.421 601.96 352.141 600.76 352.141 599.4C352.141 598.056 352.429 596.872 353.005 595.848C353.597 594.808 354.397 594.016 355.405 593.472C356.413 592.912 357.541 592.632 358.789 592.632C360.037 592.632 361.165 592.912 362.173 593.472C363.181 594.016 363.973 594.8 364.549 595.824C365.141 596.848 365.437 598.04 365.437 599.4C365.437 600.76 365.133 601.96 364.525 603C363.933 604.024 363.125 604.816 362.101 605.376C361.077 605.936 359.941 606.216 358.693 606.216ZM358.693 604.296C359.477 604.296 360.213 604.112 360.901 603.744C361.589 603.376 362.141 602.824 362.557 602.088C362.989 601.352 363.205 600.456 363.205 599.4C363.205 598.344 362.997 597.448 362.581 596.712C362.165 595.976 361.621 595.432 360.949 595.08C360.277 594.712 359.549 594.528 358.765 594.528C357.965 594.528 357.229 594.712 356.557 595.08C355.901 595.432 355.373 595.976 354.973 596.712C354.573 597.448 354.373 598.344 354.373 599.4C354.373 600.472 354.565 601.376 354.949 602.112C355.349 602.848 355.877 603.4 356.533 603.768C357.189 604.12 357.909 604.296 358.693 604.296ZM373.661 594.648H370.901V606H368.717V594.648H367.013V592.848H368.717V591.912C368.717 590.44 369.093 589.368 369.845 588.696C370.613 588.008 371.837 587.664 373.517 587.664V589.488C372.557 589.488 371.877 589.68 371.477 590.064C371.093 590.432 370.901 591.048 370.901 591.912V592.848H373.661V594.648ZM378.871 594.648V602.4C378.871 603.04 379.007 603.496 379.279 603.768C379.551 604.024 380.023 604.152 380.695 604.152H382.303V606H380.335C379.119 606 378.207 605.72 377.599 605.16C376.991 604.6 376.687 603.68 376.687 602.4V594.648H374.983V592.848H376.687V589.536H378.871V592.848H382.303V594.648H378.871ZM396.95 598.92C396.95 599.336 396.926 599.776 396.878 600.24H386.366C386.446 601.536 386.886 602.552 387.686 603.288C388.502 604.008 389.486 604.368 390.638 604.368C391.582 604.368 392.366 604.152 392.99 603.72C393.63 603.272 394.078 602.68 394.334 601.944H396.686C396.334 603.208 395.63 604.24 394.574 605.04C393.518 605.824 392.206 606.216 390.638 606.216C389.39 606.216 388.27 605.936 387.278 605.376C386.302 604.816 385.534 604.024 384.974 603C384.414 601.96 384.134 600.76 384.134 599.4C384.134 598.04 384.406 596.848 384.95 595.824C385.494 594.8 386.254 594.016 387.23 593.472C388.222 592.912 389.358 592.632 390.638 592.632C391.886 592.632 392.99 592.904 393.95 593.448C394.91 593.992 395.646 594.744 396.158 595.704C396.686 596.648 396.95 597.72 396.95 598.92ZM394.694 598.464C394.694 597.632 394.51 596.92 394.142 596.328C393.774 595.72 393.27 595.264 392.63 594.96C392.006 594.64 391.31 594.48 390.542 594.48C389.438 594.48 388.494 594.832 387.71 595.536C386.942 596.24 386.502 597.216 386.39 598.464H394.694ZM406.24 592.608C407.84 592.608 409.136 593.096 410.128 594.072C411.12 595.032 411.616 596.424 411.616 598.248V606H409.456V598.56C409.456 597.248 409.128 596.248 408.472 595.56C407.816 594.856 406.92 594.504 405.784 594.504C404.632 594.504 403.712 594.864 403.024 595.584C402.352 596.304 402.016 597.352 402.016 598.728V606H399.832V592.848H402.016V594.72C402.448 594.048 403.032 593.528 403.768 593.16C404.52 592.792 405.344 592.608 406.24 592.608ZM423.766 595.296C424.214 594.512 424.87 593.872 425.734 593.376C426.598 592.88 427.582 592.632 428.686 592.632C429.87 592.632 430.934 592.912 431.878 593.472C432.822 594.032 433.566 594.824 434.11 595.848C434.654 596.856 434.926 598.032 434.926 599.376C434.926 600.704 434.654 601.888 434.11 602.928C433.566 603.968 432.814 604.776 431.854 605.352C430.91 605.928 429.854 606.216 428.686 606.216C427.55 606.216 426.55 605.968 425.686 605.472C424.838 604.976 424.198 604.344 423.766 603.576V606H421.582V588.24H423.766V595.296ZM432.694 599.376C432.694 598.384 432.494 597.52 432.094 596.784C431.694 596.048 431.15 595.488 430.462 595.104C429.79 594.72 429.046 594.528 428.23 594.528C427.43 594.528 426.686 594.728 425.998 595.128C425.326 595.512 424.782 596.08 424.366 596.832C423.966 597.568 423.766 598.424 423.766 599.4C423.766 600.392 423.966 601.264 424.366 602.016C424.782 602.752 425.326 603.32 425.998 603.72C426.686 604.104 427.43 604.296 428.23 604.296C429.046 604.296 429.79 604.104 430.462 603.72C431.15 603.32 431.694 602.752 432.094 602.016C432.494 601.264 432.694 600.384 432.694 599.376ZM449.801 598.92C449.801 599.336 449.777 599.776 449.729 600.24H439.217C439.297 601.536 439.737 602.552 440.537 603.288C441.353 604.008 442.337 604.368 443.489 604.368C444.433 604.368 445.217 604.152 445.841 603.72C446.481 603.272 446.929 602.68 447.185 601.944H449.537C449.185 603.208 448.481 604.24 447.425 605.04C446.369 605.824 445.057 606.216 443.489 606.216C442.241 606.216 441.121 605.936 440.129 605.376C439.153 604.816 438.385 604.024 437.825 603C437.265 601.96 436.985 600.76 436.985 599.4C436.985 598.04 437.257 596.848 437.801 595.824C438.345 594.8 439.105 594.016 440.081 593.472C441.073 592.912 442.209 592.632 443.489 592.632C444.737 592.632 445.841 592.904 446.801 593.448C447.761 593.992 448.497 594.744 449.009 595.704C449.537 596.648 449.801 597.72 449.801 598.92ZM447.545 598.464C447.545 597.632 447.361 596.92 446.993 596.328C446.625 595.72 446.121 595.264 445.481 594.96C444.857 594.64 444.161 594.48 443.393 594.48C442.289 594.48 441.345 594.832 440.561 595.536C439.793 596.24 439.353 597.216 439.241 598.464H447.545ZM451.868 599.4C451.868 598.04 452.14 596.856 452.684 595.848C453.228 594.824 453.98 594.032 454.94 593.472C455.916 592.912 457.028 592.632 458.276 592.632C459.892 592.632 461.22 593.024 462.26 593.808C463.316 594.592 464.012 595.68 464.348 597.072H461.996C461.772 596.272 461.332 595.64 460.676 595.176C460.036 594.712 459.236 594.48 458.276 594.48C457.028 594.48 456.02 594.912 455.252 595.776C454.484 596.624 454.1 597.832 454.1 599.4C454.1 600.984 454.484 602.208 455.252 603.072C456.02 603.936 457.028 604.368 458.276 604.368C459.236 604.368 460.036 604.144 460.676 603.696C461.316 603.248 461.756 602.608 461.996 601.776H464.348C463.996 603.12 463.292 604.2 462.236 605.016C461.18 605.816 459.86 606.216 458.276 606.216C457.028 606.216 455.916 605.936 454.94 605.376C453.98 604.816 453.228 604.024 452.684 603C452.14 601.976 451.868 600.776 451.868 599.4ZM472.998 606.216C471.766 606.216 470.646 605.936 469.638 605.376C468.646 604.816 467.862 604.024 467.286 603C466.726 601.96 466.446 600.76 466.446 599.4C466.446 598.056 466.734 596.872 467.31 595.848C467.902 594.808 468.702 594.016 469.71 593.472C470.718 592.912 471.846 592.632 473.094 592.632C474.342 592.632 475.47 592.912 476.478 593.472C477.486 594.016 478.278 594.8 478.854 595.824C479.446 596.848 479.742 598.04 479.742 599.4C479.742 600.76 479.438 601.96 478.83 603C478.238 604.024 477.43 604.816 476.406 605.376C475.382 605.936 474.246 606.216 472.998 606.216ZM472.998 604.296C473.782 604.296 474.518 604.112 475.206 603.744C475.894 603.376 476.446 602.824 476.862 602.088C477.294 601.352 477.51 600.456 477.51 599.4C477.51 598.344 477.302 597.448 476.886 596.712C476.47 595.976 475.926 595.432 475.254 595.08C474.582 594.712 473.854 594.528 473.07 594.528C472.27 594.528 471.534 594.712 470.862 595.08C470.206 595.432 469.678 595.976 469.278 596.712C468.878 597.448 468.678 598.344 468.678 599.4C468.678 600.472 468.87 601.376 469.254 602.112C469.654 602.848 470.182 603.4 470.838 603.768C471.494 604.12 472.214 604.296 472.998 604.296ZM498.43 592.608C499.454 592.608 500.366 592.824 501.166 593.256C501.966 593.672 502.598 594.304 503.062 595.152C503.526 596 503.758 597.032 503.758 598.248V606H501.598V598.56C501.598 597.248 501.27 596.248 500.614 595.56C499.974 594.856 499.102 594.504 497.998 594.504C496.862 594.504 495.958 594.872 495.286 595.608C494.614 596.328 494.278 597.376 494.278 598.752V606H492.118V598.56C492.118 597.248 491.79 596.248 491.134 595.56C490.494 594.856 489.622 594.504 488.518 594.504C487.382 594.504 486.478 594.872 485.806 595.608C485.134 596.328 484.798 597.376 484.798 598.752V606H482.614V592.848H484.798V594.744C485.23 594.056 485.806 593.528 486.526 593.16C487.262 592.792 488.07 592.608 488.95 592.608C490.054 592.608 491.03 592.856 491.878 593.352C492.726 593.848 493.358 594.576 493.774 595.536C494.142 594.608 494.75 593.888 495.598 593.376C496.446 592.864 497.39 592.608 498.43 592.608ZM519.34 598.92C519.34 599.336 519.316 599.776 519.268 600.24H508.756C508.836 601.536 509.276 602.552 510.076 603.288C510.892 604.008 511.876 604.368 513.028 604.368C513.972 604.368 514.756 604.152 515.38 603.72C516.02 603.272 516.468 602.68 516.724 601.944H519.076C518.724 603.208 518.02 604.24 516.964 605.04C515.908 605.824 514.596 606.216 513.028 606.216C511.78 606.216 510.66 605.936 509.668 605.376C508.692 604.816 507.924 604.024 507.364 603C506.804 601.96 506.524 600.76 506.524 599.4C506.524 598.04 506.796 596.848 507.34 595.824C507.884 594.8 508.644 594.016 509.62 593.472C510.612 592.912 511.748 592.632 513.028 592.632C514.276 592.632 515.38 592.904 516.34 593.448C517.3 593.992 518.036 594.744 518.548 595.704C519.076 596.648 519.34 597.72 519.34 598.92ZM517.084 598.464C517.084 597.632 516.9 596.92 516.532 596.328C516.164 595.72 515.66 595.264 515.02 594.96C514.396 594.64 513.7 594.48 512.932 594.48C511.828 594.48 510.884 594.832 510.1 595.536C509.332 596.24 508.892 597.216 508.78 598.464H517.084ZM533.973 594.648H531.213V606H529.029V594.648H527.325V592.848H529.029V591.912C529.029 590.44 529.405 589.368 530.157 588.696C530.925 588.008 532.149 587.664 533.829 587.664V589.488C532.869 589.488 532.189 589.68 531.789 590.064C531.405 590.432 531.213 591.048 531.213 591.912V592.848H533.973V594.648ZM535.704 599.376C535.704 598.032 535.976 596.856 536.52 595.848C537.064 594.824 537.808 594.032 538.752 593.472C539.712 592.912 540.776 592.632 541.944 592.632C543.096 592.632 544.096 592.88 544.944 593.376C545.792 593.872 546.424 594.496 546.84 595.248V592.848H549.048V606H546.84V603.552C546.408 604.32 545.76 604.96 544.896 605.472C544.048 605.968 543.056 606.216 541.92 606.216C540.752 606.216 539.696 605.928 538.752 605.352C537.808 604.776 537.064 603.968 536.52 602.928C535.976 601.888 535.704 600.704 535.704 599.376ZM546.84 599.4C546.84 598.408 546.64 597.544 546.24 596.808C545.84 596.072 545.296 595.512 544.608 595.128C543.936 594.728 543.192 594.528 542.376 594.528C541.56 594.528 540.816 594.72 540.144 595.104C539.472 595.488 538.936 596.048 538.536 596.784C538.136 597.52 537.936 598.384 537.936 599.376C537.936 600.384 538.136 601.264 538.536 602.016C538.936 602.752 539.472 603.32 540.144 603.72C540.816 604.104 541.56 604.296 542.376 604.296C543.192 604.296 543.936 604.104 544.608 603.72C545.296 603.32 545.84 602.752 546.24 602.016C546.64 601.264 546.84 600.392 546.84 599.4ZM568.555 592.608C569.579 592.608 570.491 592.824 571.291 593.256C572.091 593.672 572.723 594.304 573.187 595.152C573.651 596 573.883 597.032 573.883 598.248V606H571.723V598.56C571.723 597.248 571.395 596.248 570.739 595.56C570.099 594.856 569.227 594.504 568.123 594.504C566.987 594.504 566.083 594.872 565.411 595.608C564.739 596.328 564.403 597.376 564.403 598.752V606H562.243V598.56C562.243 597.248 561.915 596.248 561.259 595.56C560.619 594.856 559.747 594.504 558.643 594.504C557.507 594.504 556.603 594.872 555.931 595.608C555.259 596.328 554.923 597.376 554.923 598.752V606H552.739V592.848H554.923V594.744C555.355 594.056 555.931 593.528 556.651 593.16C557.387 592.792 558.195 592.608 559.075 592.608C560.179 592.608 561.155 592.856 562.003 593.352C562.851 593.848 563.483 594.576 563.899 595.536C564.267 594.608 564.875 593.888 565.723 593.376C566.571 592.864 567.515 592.608 568.555 592.608ZM578.593 590.712C578.177 590.712 577.825 590.568 577.537 590.28C577.249 589.992 577.105 589.64 577.105 589.224C577.105 588.808 577.249 588.456 577.537 588.168C577.825 587.88 578.177 587.736 578.593 587.736C578.993 587.736 579.329 587.88 579.601 588.168C579.889 588.456 580.033 588.808 580.033 589.224C580.033 589.64 579.889 589.992 579.601 590.28C579.329 590.568 578.993 590.712 578.593 590.712ZM579.649 592.848V606H577.465V592.848H579.649ZM585.555 588.24V606H583.371V588.24H585.555ZM600.606 592.848L592.686 612.192H590.43L593.022 605.856L587.718 592.848H590.142L594.27 603.504L598.35 592.848H600.606ZM603.497 606.144C603.081 606.144 602.729 606 602.441 605.712C602.153 605.424 602.009 605.072 602.009 604.656C602.009 604.24 602.153 603.888 602.441 603.6C602.729 603.312 603.081 603.168 603.497 603.168C603.897 603.168 604.233 603.312 604.505 603.6C604.793 603.888 604.937 604.24 604.937 604.656C604.937 605.072 604.793 605.424 604.505 605.712C604.233 606 603.897 606.144 603.497 606.144Z" fill="black"/>
<defs>
<filter id="filter0_bd_7_9" x="278" y="268" width="660" height="329" filterUnits="userSpaceOnUse" color-interpolation-filters="sRGB">
<feFlood flood-opacity="0" result="BackgroundImageFix"/>
<feGaussianBlur in="BackgroundImageFix" stdDeviation="50"/>
<feComposite in2="SourceAlpha" operator="in" result="effect1_backgroundBlur_7_9"/>
<feColorMatrix in="SourceAlpha" type="matrix" values="0 0 0 0 0 0 0 0 0 0 0 0 0 0 0 0 0 0 127 0" result="hardAlpha"/>
<feMorphology radius="2" operator="dilate" in="SourceAlpha" result="effect2_dropShadow_7_9"/>
<feOffset/>
<feGaussianBlur stdDeviation="10"/>
<feComposite in2="hardAlpha" operator="out"/>
<feColorMatrix type="matrix" values="0 0 0 0 0 0 0 0 0 0 0 0 0 0 0 0 0 0 0.2 0"/>
<feBlend mode="normal" in2="effect1_backgroundBlur_7_9" result="effect2_dropShadow_7_9"/>
<feBlend mode="normal" in="SourceGraphic" in2="effect2_dropShadow_7_9" result="shape"/>
</filter>
</defs>
</svg>
