<svg width="265" height="39" viewBox="0 0 265 39" fill="none" xmlns="http://www.w3.org/2000/svg">
<g clip-path="url(#clip0_7_14)">
<path d="M11.1333 7.00001C12.7067 6.77334 14.3733 8.49334 14.8533 10.8667C15.3333 13.2267 14.4667 15.3333 12.8933 15.5733C11.3333 15.8133 9.65334 14.0933 9.16 11.72C8.66667 9.36001 9.56 7.25334 11.1333 7.00001ZM20.6667 7.00001C22.2533 7.25334 23.1333 9.36001 22.6667 11.72C22.16 14.0933 20.4933 15.8133 18.92 15.5733C17.3333 15.3333 16.4667 13.2267 16.96 10.8667C17.44 8.49334 19.1067 6.77334 20.6667 7.00001ZM4 13.1333C5.52 12.48 7.58667 13.6667 8.66667 15.7333C9.68 17.84 9.33334 20.0533 7.82667 20.7067C6.32 21.36 4.26667 20.1867 3.21334 18.0933C2.16 16 2.53334 13.7733 4 13.1333ZM28 13.1333C29.4667 13.7733 29.84 16 28.7867 18.0933C27.7333 20.1867 25.68 21.36 24.1733 20.7067C22.6667 20.0533 22.32 17.84 23.3333 15.7333C24.4133 13.6667 26.48 12.48 28 13.1333ZM25.7733 27.5067C25.8267 28.76 24.8667 30.1467 23.72 30.6667C21.3333 31.76 18.5067 29.4933 15.8533 29.4933C13.2 29.4933 10.3467 31.8533 8 30.6667C6.66667 30.0133 5.74667 28.28 5.92 26.84C6.16 24.8533 8.54667 23.7867 9.96 22.3333C11.84 20.4533 13.1733 16.92 15.8533 16.92C18.52 16.92 19.9333 20.4 21.7333 22.3333C23.2133 23.96 25.68 25.3333 25.7733 27.5067Z" fill="black"/>
<path d="M63.9432 14.125C63.8371 13.1326 63.3902 12.3598 62.6023 11.8068C61.822 11.2538 60.8068 10.9773 59.5568 10.9773C58.678 10.9773 57.9242 11.1098 57.2955 11.375C56.6667 11.6402 56.1856 12 55.8523 12.4545C55.5189 12.9091 55.3485 13.428 55.3409 14.0114C55.3409 14.4962 55.4508 14.9167 55.6705 15.2727C55.8977 15.6288 56.2045 15.9318 56.5909 16.1818C56.9773 16.4242 57.4053 16.6288 57.875 16.7955C58.3447 16.9621 58.8182 17.1023 59.2955 17.2159L61.4773 17.7614C62.3561 17.9659 63.2008 18.2424 64.0114 18.5909C64.8295 18.9394 65.5606 19.3788 66.2045 19.9091C66.8561 20.4394 67.3712 21.0795 67.75 21.8295C68.1288 22.5795 68.3182 23.4583 68.3182 24.4659C68.3182 25.8295 67.9697 27.0303 67.2727 28.0682C66.5758 29.0985 65.5682 29.9053 64.25 30.4886C62.9394 31.0644 61.3523 31.3523 59.4886 31.3523C57.678 31.3523 56.1061 31.072 54.7727 30.5114C53.447 29.9508 52.4091 29.1326 51.6591 28.0568C50.9167 26.9811 50.5152 25.6705 50.4545 24.125H54.6023C54.6629 24.9356 54.9129 25.6098 55.3523 26.1477C55.7917 26.6856 56.3636 27.0871 57.0682 27.3523C57.7803 27.6174 58.5758 27.75 59.4545 27.75C60.3712 27.75 61.1742 27.6136 61.8636 27.3409C62.5606 27.0606 63.1061 26.6742 63.5 26.1818C63.8939 25.6818 64.0947 25.0985 64.1023 24.4318C64.0947 23.8258 63.9167 23.3258 63.5682 22.9318C63.2197 22.5303 62.7311 22.197 62.1023 21.9318C61.4811 21.6591 60.7538 21.4167 59.9205 21.2045L57.2727 20.5227C55.3561 20.0303 53.8409 19.2841 52.7273 18.2841C51.6212 17.2765 51.0682 15.9394 51.0682 14.2727C51.0682 12.9015 51.4394 11.7008 52.1818 10.6705C52.9318 9.64015 53.9508 8.84091 55.2386 8.27273C56.5265 7.69697 57.9848 7.40909 59.6136 7.40909C61.2652 7.40909 62.7121 7.69697 63.9545 8.27273C65.2045 8.84091 66.1856 9.63258 66.8977 10.6477C67.6098 11.6553 67.9773 12.8144 68 14.125H63.9432ZM76.0085 20.7727V31H71.8949V7.72727H75.9176V16.5114H76.1222C76.5313 15.5265 77.1638 14.75 78.0199 14.1818C78.8835 13.6061 79.982 13.3182 81.3153 13.3182C82.5275 13.3182 83.5843 13.572 84.4858 14.0795C85.3873 14.5871 86.0843 15.3295 86.5767 16.3068C87.0767 17.2841 87.3267 18.4773 87.3267 19.8864V31H83.2131V20.5227C83.2131 19.3485 82.91 18.4356 82.304 17.7841C81.7055 17.125 80.8646 16.7955 79.7812 16.7955C79.054 16.7955 78.4025 16.9545 77.8267 17.2727C77.2585 17.5833 76.8116 18.0341 76.4858 18.625C76.1676 19.2159 76.0085 19.9318 76.0085 20.7727ZM99.2472 31.3409C97.4972 31.3409 95.9858 30.9773 94.7131 30.25C93.4479 29.5152 92.4744 28.4773 91.7926 27.1364C91.1108 25.7879 90.7699 24.2008 90.7699 22.375C90.7699 20.5795 91.1108 19.0038 91.7926 17.6477C92.482 16.2841 93.4441 15.2235 94.679 14.4659C95.9138 13.7008 97.3646 13.3182 99.0312 13.3182C100.107 13.3182 101.122 13.4924 102.077 13.8409C103.039 14.1818 103.887 14.7121 104.622 15.4318C105.365 16.1515 105.948 17.0682 106.372 18.1818C106.796 19.2879 107.009 20.6061 107.009 22.1364V23.3977H92.7017V20.625H103.065C103.058 19.8371 102.887 19.1364 102.554 18.5227C102.221 17.9015 101.755 17.4129 101.156 17.0568C100.565 16.7008 99.8759 16.5227 99.0881 16.5227C98.2472 16.5227 97.5085 16.7273 96.8722 17.1364C96.2358 17.5379 95.7396 18.0682 95.3835 18.7273C95.035 19.3788 94.857 20.0947 94.8494 20.875V23.2955C94.8494 24.3106 95.035 25.1818 95.4062 25.9091C95.7775 26.6288 96.2964 27.1818 96.9631 27.5682C97.6297 27.947 98.41 28.1364 99.304 28.1364C99.9025 28.1364 100.444 28.053 100.929 27.8864C101.414 27.7121 101.834 27.4583 102.19 27.125C102.546 26.7917 102.815 26.3788 102.997 25.8864L106.838 26.3182C106.596 27.3333 106.134 28.2197 105.452 28.9773C104.777 29.7273 103.914 30.3106 102.861 30.7273C101.808 31.1364 100.603 31.3409 99.2472 31.3409ZM110.489 31V13.5455H114.477V16.4545H114.659C114.977 15.447 115.523 14.6705 116.295 14.125C117.076 13.572 117.966 13.2955 118.966 13.2955C119.193 13.2955 119.447 13.3068 119.727 13.3295C120.015 13.3447 120.254 13.3712 120.443 13.4091V17.1932C120.269 17.1326 119.992 17.0795 119.614 17.0341C119.242 16.9811 118.883 16.9545 118.534 16.9545C117.784 16.9545 117.11 17.1174 116.511 17.4432C115.92 17.7614 115.455 18.2045 115.114 18.7727C114.773 19.3409 114.602 19.9962 114.602 20.7386V31H110.489ZM123.176 31V13.5455H127.29V31H123.176ZM125.244 11.0682C124.593 11.0682 124.032 10.8523 123.562 10.4205C123.093 9.98106 122.858 9.45454 122.858 8.84091C122.858 8.2197 123.093 7.69318 123.562 7.26136C124.032 6.82197 124.593 6.60227 125.244 6.60227C125.903 6.60227 126.464 6.82197 126.926 7.26136C127.396 7.69318 127.631 8.2197 127.631 8.84091C127.631 9.45454 127.396 9.98106 126.926 10.4205C126.464 10.8523 125.903 11.0682 125.244 11.0682ZM137.997 31.3068C136.626 31.3068 135.399 30.9545 134.315 30.25C133.232 29.5455 132.376 28.5227 131.747 27.1818C131.118 25.8409 130.804 24.2121 130.804 22.2955C130.804 20.3561 131.122 18.7197 131.759 17.3864C132.402 16.0455 133.27 15.0341 134.361 14.3523C135.452 13.6629 136.668 13.3182 138.009 13.3182C139.031 13.3182 139.872 13.4924 140.531 13.8409C141.19 14.1818 141.713 14.5947 142.099 15.0795C142.486 15.5568 142.785 16.0076 142.997 16.4318H143.168V7.72727H147.293V31H143.247V28.25H142.997C142.785 28.6742 142.478 29.125 142.077 29.6023C141.675 30.072 141.145 30.4735 140.486 30.8068C139.827 31.1402 138.997 31.3068 137.997 31.3068ZM139.145 27.9318C140.016 27.9318 140.759 27.697 141.372 27.2273C141.986 26.75 142.452 26.0871 142.77 25.2386C143.088 24.3902 143.247 23.4015 143.247 22.2727C143.247 21.1439 143.088 20.1629 142.77 19.3295C142.459 18.4962 141.997 17.8485 141.384 17.3864C140.777 16.9242 140.031 16.6932 139.145 16.6932C138.228 16.6932 137.463 16.9318 136.849 17.4091C136.236 17.8864 135.774 18.5455 135.463 19.3864C135.152 20.2273 134.997 21.1894 134.997 22.2727C134.997 23.3636 135.152 24.3371 135.463 25.1932C135.781 26.0417 136.247 26.7121 136.861 27.2045C137.482 27.6894 138.243 27.9318 139.145 27.9318ZM156.699 31.3523C155.593 31.3523 154.597 31.1553 153.71 30.7614C152.831 30.3598 152.134 29.7689 151.619 28.9886C151.112 28.2083 150.858 27.2462 150.858 26.1023C150.858 25.1174 151.04 24.303 151.403 23.6591C151.767 23.0152 152.263 22.5 152.892 22.1136C153.521 21.7273 154.229 21.4356 155.017 21.2386C155.813 21.0341 156.634 20.8864 157.483 20.7955C158.506 20.6894 159.335 20.5947 159.972 20.5114C160.608 20.4205 161.07 20.2841 161.358 20.1023C161.653 19.9129 161.801 19.6212 161.801 19.2273V19.1591C161.801 18.303 161.547 17.6402 161.04 17.1705C160.532 16.7008 159.801 16.4659 158.847 16.4659C157.839 16.4659 157.04 16.6856 156.449 17.125C155.866 17.5644 155.472 18.0833 155.267 18.6818L151.426 18.1364C151.729 17.0758 152.229 16.1894 152.926 15.4773C153.623 14.7576 154.475 14.2197 155.483 13.8636C156.491 13.5 157.604 13.3182 158.824 13.3182C159.665 13.3182 160.502 13.4167 161.335 13.6136C162.169 13.8106 162.93 14.1364 163.619 14.5909C164.309 15.0379 164.862 15.6477 165.278 16.4205C165.703 17.1932 165.915 18.1591 165.915 19.3182V31H161.96V28.6023H161.824C161.574 29.0871 161.222 29.5417 160.767 29.9659C160.32 30.3826 159.756 30.7197 159.074 30.9773C158.4 31.2273 157.608 31.3523 156.699 31.3523ZM157.767 28.3295C158.593 28.3295 159.309 28.1667 159.915 27.8409C160.521 27.5076 160.987 27.0682 161.312 26.5227C161.646 25.9773 161.812 25.3826 161.812 24.7386V22.6818C161.684 22.7879 161.464 22.8864 161.153 22.9773C160.85 23.0682 160.509 23.1477 160.131 23.2159C159.752 23.2841 159.377 23.3447 159.006 23.3977C158.634 23.4508 158.313 23.4962 158.04 23.5341C157.426 23.6174 156.877 23.7538 156.392 23.9432C155.907 24.1326 155.525 24.3977 155.244 24.7386C154.964 25.072 154.824 25.5038 154.824 26.0341C154.824 26.7917 155.1 27.3636 155.653 27.75C156.206 28.1364 156.911 28.3295 157.767 28.3295ZM174.165 20.7727V31H170.051V13.5455H173.983V16.5114H174.188C174.589 15.5341 175.229 14.7576 176.108 14.1818C176.994 13.6061 178.089 13.3182 179.392 13.3182C180.597 13.3182 181.646 13.5758 182.54 14.0909C183.441 14.6061 184.138 15.3523 184.631 16.3295C185.131 17.3068 185.377 18.4924 185.369 19.8864V31H181.256V20.5227C181.256 19.3561 180.953 18.4432 180.347 17.7841C179.748 17.125 178.919 16.7955 177.858 16.7955C177.138 16.7955 176.498 16.9545 175.938 17.2727C175.384 17.5833 174.949 18.0341 174.631 18.625C174.32 19.2159 174.165 19.9318 174.165 20.7727ZM197.67 31V7.72727H206.398C208.186 7.72727 209.686 8.06061 210.898 8.72727C212.117 9.39394 213.038 10.3106 213.659 11.4773C214.288 12.6364 214.602 13.9545 214.602 15.4318C214.602 16.9242 214.288 18.25 213.659 19.4091C213.03 20.5682 212.102 21.4811 210.875 22.1477C209.648 22.8068 208.136 23.1364 206.341 23.1364H200.557V19.6705H205.773C206.818 19.6705 207.674 19.4886 208.341 19.125C209.008 18.7614 209.5 18.2614 209.818 17.625C210.144 16.9886 210.307 16.2576 210.307 15.4318C210.307 14.6061 210.144 13.8788 209.818 13.25C209.5 12.6212 209.004 12.1326 208.33 11.7841C207.663 11.428 206.803 11.25 205.75 11.25H201.886V31H197.67ZM225.56 31.3409C223.81 31.3409 222.298 30.9773 221.026 30.25C219.76 29.5152 218.787 28.4773 218.105 27.1364C217.423 25.7879 217.082 24.2008 217.082 22.375C217.082 20.5795 217.423 19.0038 218.105 17.6477C218.795 16.2841 219.757 15.2235 220.991 14.4659C222.226 13.7008 223.677 13.3182 225.344 13.3182C226.42 13.3182 227.435 13.4924 228.389 13.8409C229.351 14.1818 230.2 14.7121 230.935 15.4318C231.677 16.1515 232.26 17.0682 232.685 18.1818C233.109 19.2879 233.321 20.6061 233.321 22.1364V23.3977H219.014V20.625H229.378C229.37 19.8371 229.2 19.1364 228.866 18.5227C228.533 17.9015 228.067 17.4129 227.469 17.0568C226.878 16.7008 226.188 16.5227 225.401 16.5227C224.56 16.5227 223.821 16.7273 223.185 17.1364C222.548 17.5379 222.052 18.0682 221.696 18.7273C221.348 19.3788 221.17 20.0947 221.162 20.875V23.2955C221.162 24.3106 221.348 25.1818 221.719 25.9091C222.09 26.6288 222.609 27.1818 223.276 27.5682C223.942 27.947 224.723 28.1364 225.616 28.1364C226.215 28.1364 226.757 28.053 227.241 27.8864C227.726 27.7121 228.147 27.4583 228.503 27.125C228.859 26.7917 229.128 26.3788 229.31 25.8864L233.151 26.3182C232.908 27.3333 232.446 28.2197 231.764 28.9773C231.09 29.7273 230.226 30.3106 229.173 30.7273C228.12 31.1364 226.916 31.3409 225.56 31.3409ZM245.517 13.5455V16.7273H235.483V13.5455H245.517ZM237.96 9.36364H242.074V25.75C242.074 26.303 242.157 26.7273 242.324 27.0227C242.498 27.3106 242.725 27.5076 243.006 27.6136C243.286 27.7197 243.597 27.7727 243.938 27.7727C244.195 27.7727 244.43 27.7538 244.642 27.7159C244.862 27.678 245.028 27.6439 245.142 27.6136L245.835 30.8295C245.616 30.9053 245.301 30.9886 244.892 31.0795C244.491 31.1705 243.998 31.2235 243.415 31.2386C242.384 31.2689 241.456 31.1136 240.631 30.7727C239.805 30.4242 239.15 29.8864 238.665 29.1591C238.188 28.4318 237.953 27.5227 237.96 26.4318V9.36364ZM262.503 18.1591L258.753 18.5682C258.647 18.1894 258.461 17.8333 258.196 17.5C257.938 17.1667 257.59 16.8977 257.151 16.6932C256.711 16.4886 256.173 16.3864 255.537 16.3864C254.681 16.3864 253.961 16.572 253.378 16.9432C252.802 17.3144 252.518 17.7955 252.526 18.3864C252.518 18.8939 252.704 19.3068 253.082 19.625C253.469 19.9432 254.105 20.2045 254.991 20.4091L257.969 21.0455C259.62 21.4015 260.848 21.9659 261.651 22.7386C262.461 23.5114 262.87 24.5227 262.878 25.7727C262.87 26.8712 262.548 27.8409 261.912 28.6818C261.283 29.5152 260.408 30.1667 259.287 30.6364C258.166 31.1061 256.878 31.3409 255.423 31.3409C253.287 31.3409 251.567 30.8939 250.264 30C248.961 29.0985 248.185 27.8447 247.935 26.2386L251.946 25.8523C252.128 26.6402 252.514 27.2348 253.105 27.6364C253.696 28.0379 254.465 28.2386 255.412 28.2386C256.389 28.2386 257.173 28.0379 257.764 27.6364C258.363 27.2348 258.662 26.7386 258.662 26.1477C258.662 25.6477 258.469 25.2348 258.082 24.9091C257.704 24.5833 257.113 24.3333 256.31 24.1591L253.332 23.5341C251.658 23.1856 250.42 22.5985 249.616 21.7727C248.813 20.9394 248.416 19.8864 248.423 18.6136C248.416 17.5379 248.707 16.6061 249.298 15.8182C249.897 15.0227 250.726 14.4091 251.787 13.9773C252.855 13.5379 254.086 13.3182 255.48 13.3182C257.526 13.3182 259.135 13.7538 260.31 14.625C261.491 15.4962 262.223 16.6742 262.503 18.1591Z" fill="black"/>
</g>
<defs>
<clipPath id="clip0_7_14">
<rect width="265" height="39" fill="white"/>
</clipPath>
</defs>
</svg>
